<?xml version="1.0" encoding="UTF-8" standalone="no"?>
<!-- Created with Inkscape (http://www.inkscape.org/) -->

<svg
   version="1.1"
   id="svg1"
   width="1183.0914"
   height="1335.2544"
   viewBox="0 0 1183.0914 1335.2544"
   xmlns="http://www.w3.org/2000/svg"
   xmlns:svg="http://www.w3.org/2000/svg">
  <defs
     id="defs1">
    <style>
      #path1 {
        fill: #1f1f1f;
        fill-opacity: 0;
        stroke: #2b2b2b;
        stroke-width: 1.5;
        stroke-linecap: round;
        stroke-linejoin: round;
        stroke-dasharray: 20000;
        stroke-dashoffset: 20000;
        paint-order: stroke fill;
        animation: draw-root 11s cubic-bezier(0.4, 0, 0.2, 1) forwards,
          fill-in 2.2s ease forwards 8.8s;
      }

      @keyframes draw-root {
        to {
          stroke-dashoffset: 0;
        }
      }

      @keyframes fill-in {
        to {
          fill-opacity: 1;
        }
      }
    </style>
  </defs>
  <g
     id="g1"
     transform="translate(-178416.91,-165064.75)">
    <path
       style="fill:#000000"
       d="m 179038.6,166283.95 c 0.17,-14.75 -0.11,-17.38 -2.15,-20.2 -0.33,-0.47 -0.67,-1.82 -0.75,-3.01 -0.14,-2.25 -1.48,-15.59 -3.01,-29.86 -0.49,-4.59 -1.12,-9.7 -1.4,-11.35 -3.17,-18.57 -8.05,-37.16 -12.77,-48.59 -0.8,-1.94 -1.45,-3.69 -1.45,-3.89 0,-0.56 -7.83,-18.19 -9.76,-21.96 -3.16,-6.21 -8.76,-16.68 -10,-18.7 -1.73,-2.83 -8.06,-11.06 -9.82,-12.77 -0.81,-0.8 -2.14,-2.11 -2.95,-2.92 -0.82,-0.81 -3.08,-2.74 -5.03,-4.27 -3.26,-2.58 -5.14,-3.73 -9.17,-5.63 -2.76,-1.3 -9.98,-2.78 -13.56,-2.78 -3.27,0 -7.14,-0.51 -15.13,-1.99 l -2.95,-0.55 2.19,1.97 c 1.2,1.09 2.39,2.02 2.65,2.06 0.43,0.1 5.4,3.77 9.94,7.38 4.34,3.46 11.5,12.45 13.49,16.94 4.21,9.52 5.21,13.98 12.58,55.97 2.54,14.49 5.79,25.99 10.59,37.45 4,9.56 7.18,14.82 12.54,20.78 5.27,5.85 9.05,8.8 18.26,14.25 7.53,4.46 13.5,8.62 13.07,9.1 -0.14,0.17 -0.75,0 -1.35,-0.4 -0.6,-0.38 -4.97,-2.76 -9.7,-5.27 -4.73,-2.52 -10.65,-6.13 -13.15,-8.04 -5.79,-4.41 -14.63,-14.16 -14.63,-16.13 0,-0.37 -0.22,-0.66 -0.48,-0.66 -0.84,0 -5.32,-9.45 -8.44,-17.76 -3.87,-10.32 -5.94,-18.3 -8.52,-32.83 -3.02,-17.06 -3.16,-17.84 -4.44,-25.19 -3.91,-22.46 -7.66,-32.3 -15.59,-40.88 -2.65,-2.86 -6.82,-6.68 -9.26,-8.47 -2.44,-1.8 -6.6,-4.87 -9.25,-6.83 -2.65,-1.96 -4.99,-4.06 -5.2,-4.68 -0.71,-2.1 0.61,-2.5 4.52,-1.35 5.15,1.51 9.81,2.28 16.73,2.76 15.52,1.07 24.12,5.64 35.79,19.01 6.03,6.9 10.23,13.64 17.1,27.42 3.42,6.86 11.13,24.36 12.2,27.71 0.59,1.83 1.26,3.64 1.49,4 0.97,1.55 6.55,21.6 8.48,30.46 2.97,13.66 3.79,19.81 7.4,56 0.48,4.82 0.45,5.39 1.88,-33.05 0.37,-9.91 0.88,-22.38 1.14,-27.7 0.45,-9.36 0.27,-30.56 -0.33,-36.72 -0.15,-1.65 -0.54,-6.91 -0.86,-11.68 -0.61,-9.24 -2.01,-22.74 -2.87,-27.71 -1.44,-8.3 -5.49,-28.26 -6.57,-32.38 -0.68,-2.57 -1.65,-6.33 -2.16,-8.35 -5.57,-22.15 -8.6,-31.12 -14.39,-42.57 -5.37,-10.6 -17.7,-26.19 -32.56,-41.14 -3.56,-3.58 -3.65,-3.73 -1.19,-2.04 6.21,4.27 8.4,6.32 16.1,15.09 10.89,12.41 13.46,16.11 21.02,30.27 3.24,6.07 6.91,16.73 10.56,30.71 1.44,5.51 3.13,11.97 3.76,14.36 3.48,13.13 8.44,40.82 9.21,51.4 0.23,3.13 0.51,6.28 0.62,7.01 0.11,0.74 0.55,7.05 0.97,14.02 0.97,16.21 0.97,38.34 0,52.41 -0.42,6.06 -1.02,25.14 -1.34,42.4 -0.38,20.65 -0.87,33.54 -1.43,37.72 l -0.84,6.34 z m 13.13,4.24 c -0.17,-1.23 -0.65,-4.49 -1.07,-7.24 -0.98,-6.51 -0.94,-32.44 0.1,-37.05 1.02,-4.7 1.55,-52.31 0.73,-66.1 -1.11,-18.5 -3.09,-42.56 -4.17,-50.41 -6.07,-44.26 -9.54,-58.46 -19.76,-80.78 -2.76,-6.03 -9.37,-17.84 -11.92,-21.31 -3.54,-4.8 -9.29,-11.95 -10.79,-13.41 -6.28,-6.11 -10.19,-10.26 -9.94,-10.55 0.54,-0.6 11.36,9.15 14.89,13.42 17.5,21.13 29.83,49.96 34.89,81.59 2.64,16.48 5.41,36.38 6.13,43.98 0.34,3.63 0.77,6.86 0.95,7.19 0.56,1.03 1.44,-0.1 2.86,-3.66 1.75,-4.38 2.74,-9.63 4.78,-25.14 0.5,-3.86 1.06,-7.92 1.24,-9.02 0.17,-1.1 0.55,-11.01 0.84,-22.03 0.6,-23.26 1.78,-33.56 5.2,-45.4 1.85,-6.42 4.95,-14.35 5.62,-14.35 0.33,0 0.44,-0.18 0.24,-0.41 -0.85,-0.97 11.1,-20.2 20.29,-32.64 6.37,-8.62 13.07,-16.39 13.75,-15.92 0.35,0.25 0.44,0.12 0.22,-0.29 -0.54,-0.98 11.22,-10.86 16.78,-14.1 8.63,-5.02 17.75,-7.41 28.25,-7.41 9.07,0 16.22,1.84 28.98,7.45 10.9,4.79 16.08,8.42 35.29,24.75 8.45,7.18 25.1,20.17 26.57,20.72 0.34,0.13 0.46,0.7 0.26,1.27 -0.27,0.81 -1.76,1.11 -7.05,1.4 -7.43,0.41 -12.97,2.19 -24.46,7.87 -2.6,1.28 -8.01,2.59 -13.99,3.38 -5.13,0.67 -7.27,0.66 -11.53,-0.1 -9.44,-1.6 -16.09,-4.86 -28.21,-13.8 -4.18,-3.08 -8.62,-6.19 -9.86,-6.91 l -2.27,-1.3 -2.9,3.49 c -6.01,7.23 -12.89,15.53 -13.46,16.25 -4.93,6.15 -13.74,17.94 -16.9,22.63 -2.66,3.93 -10.02,16.2 -10.02,16.69 0,0.14 -1.63,3.2 -3.63,6.8 -3.09,5.56 -12.34,25.4 -12.34,26.47 0,0.19 -0.82,2.4 -1.82,4.9 -1,2.5 -2.24,5.61 -2.74,6.89 -5.36,13.63 -13.99,29.29 -24.29,44.06 l -4.89,7.01 0.45,9.35 c 0.81,16.56 0.57,71.44 -0.34,77.11 -0.95,5.9 -1.25,23.86 -0.61,37.04 0.43,9.15 0.32,12.05 -0.31,7.59 z m 11.49,-150.76 c 8.72,-13.82 14.81,-26.46 21.64,-44.94 2.37,-6.41 9.74,-22.31 11.13,-23.98 0.68,-0.83 1.19,-1.66 1.13,-1.85 -0.14,-0.44 5.61,-10.86 9.21,-16.71 5.12,-8.33 7.84,-12.04 8.48,-11.59 0.39,0.27 0.47,0.13 0.2,-0.35 -0.26,-0.48 1.12,-2.81 3.53,-5.94 2.18,-2.84 4.64,-6.05 5.47,-7.16 5.48,-7.27 11.06,-13.77 15.32,-17.86 2.71,-2.61 4.92,-4.94 4.92,-5.19 0,-1.52 -11.26,-5.03 -18.04,-5.61 -5.56,-0.47 -17.07,1.06 -17.79,2.37 -0.17,0.32 -0.77,0.59 -1.32,0.6 -3.12,0 -17.84,9.8 -24.8,16.46 -4.24,4.07 -9.09,12.98 -12.47,22.92 -3.96,11.63 -6.71,31.46 -6.67,48.14 0,12.25 -0.96,25.96 -2.59,35.85 -0.87,5.25 -1.49,10.04 -1.39,10.64 0.11,0.61 1.44,-3.24 2.98,-8.54 2.87,-9.93 3.3,-11.68 4.91,-19.66 1.37,-6.78 4.97,-23.03 5.62,-25.37 0.31,-1.1 1.39,-5.16 2.41,-9.01 5.01,-19.09 10.57,-31.75 19.87,-45.24 3.58,-5.19 5.55,-7.37 3.56,-3.95 -0.5,0.86 -2.17,3.94 -3.72,6.85 -1.55,2.9 -3.81,7.09 -5.02,9.29 -7.4,13.51 -12.77,30.25 -19.27,60.08 -2.35,10.77 -3.26,15.81 -2.94,16.18 0.17,0.18 0.48,-0.45 0.69,-1.41 0.22,-0.96 0.68,-1.75 1.02,-1.75 0.34,0 0.47,-0.17 0.28,-0.38 -0.41,-0.47 3.65,-11.68 8.43,-23.32 0.6,-1.47 2.21,-5.52 3.56,-9.01 6.26,-16.13 15.64,-32.46 23.41,-40.73 l 2.82,-3 -1.76,2.67 c -0.97,1.47 -2.8,4.42 -4.08,6.56 -1.27,2.13 -2.73,4.15 -3.23,4.48 -0.49,0.33 -0.7,0.61 -0.45,0.62 0.25,0 -0.98,2.35 -2.74,5.2 -1.76,2.84 -4.07,6.98 -5.13,9.18 -3.78,7.88 -10.63,23.76 -10.63,24.66 0,0.2 -0.93,2.65 -2.07,5.43 -1.13,2.78 -2.07,5.18 -2.07,5.32 0,0.7 -3.53,8.63 -6.37,14.31 -1.74,3.48 -3.97,9.04 -4.96,12.35 -0.99,3.32 -2.69,7.83 -3.78,10.04 -1.09,2.21 -2.52,5.94 -3.17,8.29 -1.12,4.09 -1.13,4.22 -0.1,3 0.61,-0.71 3.28,-4.73 5.94,-8.94 z m 139.23,-116.25 c 5.33,-1.59 9.9,-3.32 14.66,-5.54 5.95,-2.78 13.21,-5.06 16.31,-5.13 1.22,0 2.75,-0.27 3.39,-0.56 1.09,-0.48 1.06,-0.58 -0.44,-1.69 -0.88,-0.65 -1.43,-1.5 -1.22,-1.88 0.22,-0.39 0.1,-0.5 -0.26,-0.25 -0.72,0.5 -1.92,-0.26 -8.57,-5.5 -2.51,-1.97 -4.39,-3.89 -4.18,-4.27 0.22,-0.41 0.1,-0.49 -0.31,-0.21 -0.41,0.28 -4.45,-2.73 -9.92,-7.41 -8.98,-7.68 -17.12,-14.23 -17.67,-14.23 -0.15,0 -1.73,-1.05 -3.51,-2.34 -1.78,-1.28 -3.53,-2.34 -3.88,-2.34 -0.35,0 -1.91,-0.72 -3.46,-1.61 -3.46,-1.98 -13.62,-6.01 -18.94,-7.51 -2.85,-0.81 -6.44,-1.11 -13.1,-1.08 -14.39,0 -21.69,2.61 -34.01,11.95 -6.23,4.71 -7.09,5.54 -13.28,12.61 -6.45,7.36 -11.39,14.27 -10.88,15.2 0.21,0.38 0.1,0.5 -0.24,0.26 -0.56,-0.39 -2.38,1.6 -6,6.62 -0.78,1.07 -1.98,2.68 -2.66,3.56 -1.36,1.75 -0.52,1.37 2.35,-1.06 1.01,-0.85 2.05,-1.55 2.31,-1.55 0.27,0 1.33,-0.73 2.38,-1.63 1.96,-1.69 10.56,-6.77 12.12,-7.16 0.48,-0.12 1.02,-0.41 1.18,-0.64 0.59,-0.83 10.45,-3.34 14.63,-3.72 4.65,-0.43 13.32,0.64 18.5,2.27 6.31,2 12.76,5.66 21.49,12.2 9.03,6.77 15.17,10.2 21.99,12.3 3.64,1.12 17.86,1.35 21.22,0.34 z m -4.96,-16.78 c -3.49,-1.45 -7.53,-4 -13.21,-8.33 -11.75,-8.96 -15.82,-11.11 -25.8,-13.63 -9.46,-2.38 -25.7,-1.03 -38.78,3.22 -4.04,1.31 -4.27,1.42 -13.23,6.27 -4.35,2.35 -8.15,4.2 -8.43,4.11 -0.29,-0.1 -0.52,0.1 -0.52,0.43 0,0.33 -0.41,0.77 -0.92,0.99 -1.92,0.83 0,-1.13 3.8,-3.91 5.52,-4.01 11.42,-7.24 16.94,-9.27 14.78,-5.42 34.72,-6.77 45.14,-3.04 9.76,3.49 12.43,4.99 22.59,12.65 9.89,7.47 12.35,8.98 18.04,11.08 3.92,1.44 4.02,1.52 1.78,1.52 -1.3,0 -4.63,-0.94 -7.4,-2.09 z m -167.89,244.07 c -1.6,-3.62 -4.57,-11.08 -6.59,-16.59 -3.89,-10.6 -4.18,-11.35 -7.13,-18.7 -1.04,-2.57 -3.08,-7.67 -4.55,-11.35 -4.2,-10.5 -14.02,-33.05 -16.91,-38.82 -4.44,-8.85 -9.4,-19.59 -9.04,-19.59 0.18,0 2.58,3.84 5.33,8.54 4.23,7.23 14.66,29.54 19.27,41.2 0.72,1.83 2.48,6.15 3.91,9.59 1.42,3.43 2.59,6.34 2.59,6.46 0,0.13 1.06,2.81 2.37,5.98 1.3,3.16 2.36,5.87 2.36,6.03 0,0.15 0.64,1.86 1.41,3.8 2.84,7.08 10.49,29.37 10.2,29.7 -0.16,0.18 -1.61,-2.63 -3.22,-6.25 z m -138.92,-186.34 c -1.12,-1.37 -2.95,-4.65 -4.07,-7.28 -3.32,-7.79 -3.92,-12.41 -3.88,-30.14 0,-8.56 0.15,-15.77 0.29,-16.03 0.14,-0.25 0.42,-2.86 0.63,-5.8 0.21,-2.94 0.5,-6.09 0.65,-7.01 0.14,-0.92 0.42,-2.87 0.61,-4.34 0.19,-1.47 0.59,-4.02 0.89,-5.67 0.3,-1.65 1.07,-6.13 1.72,-9.96 1.3,-7.65 2.14,-9.8 1.59,-4.06 -1,10.35 -1.64,15.98 -2.14,18.69 -1.57,8.62 -2.08,16.89 -2.09,34.05 0,17.46 0,18.59 1.35,22.99 1.7,5.71 3.29,9.3 5.57,12.57 l 1.75,2.51 1.76,-1.68 c 2.03,-1.92 3.75,-2.16 4.29,-0.59 1.01,2.99 10.11,-1.46 20.02,-9.78 7.76,-6.52 14.09,-13.24 20.06,-21.29 8.5,-11.45 12.86,-19.61 21.07,-39.45 1.84,-4.44 1.57,-1.72 -0.51,5.05 -2.36,7.66 -4.17,11.91 -8.33,19.46 -8.71,15.8 -21.81,31.47 -33.55,40.13 -1.83,1.35 -3.46,2.62 -3.63,2.82 -0.78,0.95 -8.88,5.28 -11.16,5.97 -1.97,0.59 -2.98,0.59 -4.26,0 -1.36,-0.63 -2.02,-0.58 -3.57,0.29 -2.59,1.46 -2.75,1.41 -5.06,-1.44 z m 18.78,-41.22 c -0.16,-2.52 3.3,-17.95 5.17,-23.04 0.34,-0.91 1.85,-5.27 3.37,-9.68 1.52,-4.4 3.11,-8.91 3.53,-10.01 0.43,-1.1 2.39,-6.44 4.36,-11.86 3.07,-8.42 7.91,-19.18 8.64,-19.18 0.12,0 -1.25,3.98 -3.05,8.84 -1.79,4.87 -3.69,10.12 -4.22,11.68 -0.52,1.57 -1.18,2.84 -1.45,2.84 -0.27,0 -0.35,0.27 -0.17,0.6 0.18,0.34 -0.58,3.12 -1.7,6.18 -4.77,13.09 -8.96,25.57 -11.6,34.61 -1.56,5.33 -2.85,9.39 -2.88,9.02 z m 142.51,-6.11 c -3.01,-0.68 -6.72,-2.33 -10.68,-4.73 l -4.06,-2.47 -2.72,1.49 c -1.5,0.82 -3.02,1.29 -3.37,1.05 -0.39,-0.27 -0.48,-0.14 -0.22,0.32 0.77,1.41 -3.7,0.84 -6.66,-0.85 -1.56,-0.89 -3.8,-2.92 -4.99,-4.51 -4.72,-6.3 -4.48,-6.1 -5.93,-5.05 -3.09,2.26 -7.33,2.76 -13.38,1.55 -2.74,-0.54 -5.2,-0.84 -5.46,-0.66 -0.25,0.18 -1.07,-0.11 -1.81,-0.65 -1.04,-0.76 -10.23,-3.75 -11.52,-3.75 -0.14,0 -0.13,-0.23 0,-0.5 0.15,-0.28 -0.3,-0.56 -1,-0.63 -2.55,-0.27 -3.67,-0.63 -5.12,-1.65 -0.81,-0.57 -3.34,-2.23 -5.62,-3.68 -6.99,-4.47 -7.73,-5.02 -10.58,-7.89 -0.36,-0.37 -1.96,-1.85 -3.55,-3.3 -4.79,-4.34 -11.97,-16.21 -13.61,-22.48 -1.75,-6.68 -1.39,-18.24 0.78,-25.63 l 1.18,-4.01 -1.31,1.95 c -0.71,1.08 -2.5,3.78 -3.97,6.01 -3.67,5.58 -9.1,9.97 -20.01,16.17 -10.83,6.16 -12.61,7.02 -20.51,9.93 -7.45,2.74 -9.07,3.07 -17.45,3.58 -15.64,0.96 -29.83,-2.63 -31.47,-7.97 -0.22,-0.72 -1.39,-0.11 -4.67,2.46 -6.72,5.25 -13.96,9.01 -21.83,11.36 -4.69,1.4 -18.97,1.58 -23.07,0.29 -4.03,-1.27 -6.42,-2.71 -6.82,-4.11 -0.36,-1.3 1.88,-7.83 6.57,-19.15 2.58,-6.22 8.14,-16.5 12.05,-22.3 1.16,-1.72 3.7,-5.76 5.65,-8.98 6.34,-10.47 12.44,-17.97 22.19,-27.27 12.3,-11.75 20.27,-15.39 41.64,-19.05 20.34,-3.49 33.91,-1.94 48.15,5.47 3.52,1.84 12.54,8.19 12.54,8.84 0,0.14 -1.39,-0.59 -3.1,-1.62 -1.71,-1.03 -5.24,-2.83 -7.84,-4.01 -2.6,-1.17 -6.03,-2.72 -7.61,-3.45 -5.72,-2.63 -17.38,-5.23 -23.52,-5.23 -5.05,0 -23.59,2.6 -28.32,3.97 -9.1,2.64 -12.21,3.82 -16.86,6.39 -5.73,3.17 -11.49,7.75 -17.15,13.65 -7,7.28 -12.58,13.91 -14.2,16.87 -0.33,0.6 -2.67,4.33 -5.21,8.31 -7.37,11.55 -11.13,17.68 -12.4,20.22 -4.31,8.65 -10.49,24.05 -10.49,26.14 0,1.52 4.14,3.06 10.88,4.03 8.46,1.23 18.14,-0.79 27.81,-5.78 4.26,-2.19 8.58,-5.29 15.44,-11.04 13.95,-11.72 27.53,-20.29 38.59,-24.38 6.36,-2.35 8.77,-2.73 4.17,-0.65 -4.21,1.89 -19.32,10.41 -25.31,14.27 -3.09,1.98 -6.36,4.6 -7.25,5.81 -0.9,1.21 -2.96,3.3 -4.59,4.65 -3.74,3.1 -3.85,4.62 -0.44,6.25 6.38,3.06 17.72,4.7 27.38,3.98 9.98,-0.75 18.14,-3.65 32.71,-11.65 12.83,-7.04 16.09,-9.36 20.39,-14.51 3.48,-4.16 8.69,-11.9 8.7,-12.91 0,-0.3 0.67,-1.44 1.48,-2.55 l 1.48,-2 -0.6,2 c -0.52,1.74 -0.49,1.86 0.21,0.85 0.44,-0.64 1.01,-0.94 1.28,-0.67 0.26,0.27 0.29,0.13 0.1,-0.32 -0.36,-0.7 2.17,-6.2 2.86,-6.2 0.14,0 -0.38,1.61 -1.15,3.57 -1.55,3.96 -3.86,11.47 -5.29,17.23 -1.27,5.14 -1.25,15.98 0.1,20.31 1.28,4.26 5.4,12.12 8.6,16.41 4.97,6.65 15.82,15.35 24.41,19.57 2.43,1.19 4.32,2.28 4.19,2.43 -0.13,0.14 0.34,0.3 1.05,0.35 0.7,0 2.74,0.58 4.53,1.19 3.46,1.16 4.88,1.56 13.31,3.66 4.82,1.2 5.66,1.24 8.87,0.41 1.96,-0.51 4.47,-1.36 5.58,-1.89 1.73,-0.82 2.16,-0.83 2.85,-0.1 0.45,0.51 0.63,1.27 0.39,1.7 -0.26,0.48 -0.16,0.59 0.26,0.3 0.38,-0.26 0.68,-0.2 0.68,0.13 0,1.07 4.8,6.82 6.55,7.84 2.42,1.41 5.97,1.2 8.93,-0.53 1.41,-0.82 2.65,-1.7 2.75,-1.95 0.17,-0.41 5.97,2.83 7.56,4.21 1.13,0.99 5.6,2.56 9.11,3.2 5.62,1.02 15.77,-1.05 18.19,-3.71 1.06,-1.16 0.9,-6.49 -0.36,-11.93 -1.61,-6.96 -4.3,-13.66 -7.95,-19.85 -5.72,-9.66 -9.93,-14.77 -31.47,-38.16 l -3.55,-3.85 5.28,4.23 c 5.61,4.49 12.9,12.11 15.13,15.8 2.45,4.06 4.12,5.64 7.26,6.87 1.7,0.66 3.19,1.21 3.31,1.23 1.32,0.13 -3.9,-14.32 -10.01,-27.73 -7.39,-16.22 -13.01,-25.12 -22.29,-35.36 -5.06,-5.58 -5.96,-6.87 -5.34,-7.65 0.63,-0.8 0.6,-0.82 -0.24,-0.11 -0.83,0.7 -1.44,0.44 -3.95,-1.7 -1.64,-1.4 -5.83,-4.19 -9.31,-6.21 l -6.33,-3.67 h -7.75 c -7.34,0 -7.93,0.12 -11.01,1.92 -1.79,1.04 -3.78,2.35 -4.44,2.91 -0.65,0.55 0.1,-0.36 1.64,-2.03 1.54,-1.67 3.94,-3.46 5.32,-3.98 2.34,-0.88 2.52,-1.12 2.65,-3.56 0.4,-7.66 1.78,-15.83 4.41,-26.3 1.62,-6.41 3.32,-12.42 3.78,-13.35 l 0.84,-1.69 -0.29,1.67 c -0.54,3.08 -1.38,6.96 -2.95,13.69 -0.86,3.67 -2.09,9.23 -2.72,12.35 -0.64,3.12 -1.43,6.59 -1.74,7.72 -0.32,1.13 -0.58,3.48 -0.58,5.23 v 3.19 l 2.51,-0.47 c 1.38,-0.25 2.65,-0.48 2.81,-0.51 1.84,-0.27 8.37,1.53 12.13,3.34 8.47,4.09 14.53,8.96 23.1,18.54 8.67,9.7 15.02,20.13 22.39,36.81 5.86,13.26 8.68,20.79 9.51,25.41 0.3,1.66 0.1,2.44 -0.88,3.55 l -1.26,1.43 2.31,3.46 c 4.81,7.2 7.86,13.41 9.9,20.15 1.92,6.35 3.54,15.65 3.08,17.72 -0.42,1.85 -3.13,3.86 -7.52,5.58 -2.73,1.07 -12.15,1.9 -14.79,1.3 z m -15.97,-11.35 c 0,-0.84 -8.04,-15.95 -12.91,-24.27 l -3.71,-6.34 3.33,4 c 4.19,5.02 9.94,14.77 9.38,15.87 -0.23,0.46 -0.2,0.6 0.1,0.33 0.26,-0.27 0.81,0.23 1.22,1.11 1.32,2.88 3.27,9.23 2.95,9.6 -0.18,0.2 -0.32,0.1 -0.32,-0.3 z m -132.46,-0.69 c -0.1,-1.25 1.57,-8.8 2.95,-13.56 2.95,-10.21 7.25,-19.91 12,-27.04 2.51,-3.78 3.14,-4.4 1.71,-1.67 -2.99,5.66 -10.2,22.82 -10.2,24.27 0,0.46 -0.23,1.12 -0.5,1.46 -0.42,0.52 -2.04,5.28 -5.59,16.33 -0.18,0.55 -0.34,0.64 -0.37,0.21 z m 111.44,-8.34 c -0.41,-1.51 -0.79,-2.52 -4.13,-10.9 -0.88,-2.2 -1.98,-5.06 -2.44,-6.34 l -0.85,-2.34 1.18,1.67 c 1.93,2.71 5.26,10.72 6.23,14.97 0.87,3.8 0.88,6.14 0,2.94 z m -49.02,-27.92 c -3.76,-4.44 -7.07,-11.66 -8.23,-17.91 -0.84,-4.56 -0.84,-30.9 0,-33.83 0.43,-1.51 0.55,0 0.48,6 -0.19,15.19 0.68,26.65 2.45,32.31 1.97,6.28 3.83,10.15 6.85,14.26 1.29,1.74 2.22,3.17 2.08,3.17 -0.15,0 -1.78,-1.8 -3.64,-4 z m 41.63,0.15 c -2.13,-4.53 -10.32,-18.2 -15.29,-25.52 -5.67,-8.35 -18.18,-22.84 -23.88,-27.66 -1.22,-1.03 -2.04,-2.18 -1.83,-2.56 0.21,-0.39 0.1,-0.5 -0.24,-0.26 -0.35,0.24 -1.92,-0.93 -3.5,-2.6 l -2.86,-3.03 4.43,3.13 c 6.13,4.32 11.68,9.59 18.66,17.72 5.83,6.78 11.33,13.92 10.73,13.92 -0.17,0 0.49,0.9 1.46,2 1.01,1.14 1.58,2.32 1.34,2.77 -0.25,0.46 -0.17,0.6 0.2,0.34 0.71,-0.49 6.96,10.07 9.23,15.61 3.38,8.25 4.36,12.13 1.55,6.14 z m 12.01,-13.95 c -5.27,-6.11 -9.42,-11.4 -9.22,-11.77 0.2,-0.37 0.1,-0.49 -0.23,-0.26 -0.34,0.23 -1.77,-0.81 -3.2,-2.32 -3.75,-3.96 -12.13,-11.81 -15.91,-14.9 -1.79,-1.47 -3.34,-2.89 -3.45,-3.18 -0.11,-0.28 -0.57,-0.51 -1.03,-0.51 -0.46,0 -0.84,-0.35 -0.84,-0.78 0,-0.42 -0.17,-0.58 -0.38,-0.35 -0.21,0.23 -1.07,-0.13 -1.92,-0.81 -0.85,-0.68 -2.48,-1.8 -3.62,-2.5 -4.62,-2.82 -10.67,-7.1 -10.43,-7.38 0.15,-0.16 1.42,0.31 2.83,1.03 1.42,0.73 4.07,2.07 5.9,2.97 4.72,2.36 14.56,9.75 21.82,16.4 6.19,5.67 22.75,24.05 22.21,24.66 -0.16,0.18 0.31,0.85 1.05,1.51 1.16,1.03 6.7,9.34 6.2,9.3 -0.1,0 -4.5,-5 -9.78,-11.11 z m -70.26,-13.58 c -0.2,-0.36 -0.1,-0.66 0.26,-0.66 0.34,0 0.63,0.3 0.63,0.66 0,0.37 -0.12,0.67 -0.26,0.67 -0.15,0 -0.43,-0.3 -0.63,-0.67 z m -1.78,-3.33 c -0.2,-0.37 -0.1,-0.67 0.26,-0.67 0.35,0 0.63,0.3 0.63,0.67 0,0.36 -0.12,0.66 -0.26,0.66 -0.14,0 -0.42,-0.3 -0.63,-0.66 z m 19.56,-2.62 c -0.19,-0.35 -0.1,-0.81 0.21,-1.02 0.31,-0.22 0.72,-0.11 0.91,0.24 0.19,0.35 0.1,0.81 -0.22,1.02 -0.31,0.22 -0.71,0.11 -0.9,-0.24 z m -49.43,-0.72 c 0,-0.37 0.27,-0.67 0.59,-0.67 0.33,0 0.59,0.3 0.59,0.67 0,0.36 -0.26,0.66 -0.59,0.66 -0.32,0 -0.59,-0.3 -0.59,-0.66 z m 10.65,-0.63 c 0,-0.35 0.26,-0.81 0.59,-1.04 0.33,-0.23 0.59,0 0.59,0.63 0,0.57 -0.26,1.04 -0.59,1.04 -0.33,0 -0.59,-0.29 -0.59,-0.63 z m -77.21,-4.61 c 1.31,-1.73 7.97,-6.54 8.7,-6.28 0.27,0.1 0.48,-0.12 0.48,-0.46 0,-1.52 19.76,-12.82 32.54,-18.6 8.67,-3.93 17.54,-6.18 23.95,-6.09 4.12,0.1 3.93,0.18 -2.07,1.3 -7.67,1.42 -12.83,3.17 -23.07,7.81 -7.97,3.62 -37.24,20.2 -40.81,23.14 -0.49,0.4 -0.37,0 0.28,-0.82 z m 120.98,-0.14 c 0,-0.39 0.27,-0.52 0.59,-0.3 0.33,0.23 0.6,0.55 0.6,0.71 0,0.16 -0.27,0.29 -0.6,0.29 -0.32,0 -0.59,-0.31 -0.59,-0.7 z m -8.28,-0.63 c 0,-0.37 0.27,-0.67 0.59,-0.67 0.33,0 0.59,0.3 0.59,0.67 0,0.37 -0.26,0.67 -0.59,0.67 -0.32,0 -0.59,-0.3 -0.59,-0.67 z m 66.17,-1.21 c -0.66,-1.97 -25.67,-16.31 -33.76,-19.36 -2.84,-1.07 -4.98,-2.15 -4.75,-2.41 0.22,-0.25 0,-0.3 -0.47,-0.11 -0.47,0.19 -4.86,-0.68 -9.74,-1.94 l -8.87,-2.29 5.03,0.33 c 2.76,0.18 6.09,0.5 7.39,0.71 3.42,0.55 11.24,2.95 13.61,4.17 0.65,0.34 3.44,1.67 6.21,2.97 8.37,3.92 13.28,6.88 19.22,11.61 4.92,3.91 7.12,6.06 6.7,6.54 -0.2,0.22 -0.46,0.12 -0.57,-0.22 z m -93.06,-2.75 c -0.19,-0.34 -0.1,-0.81 0.26,-1.04 0.33,-0.23 0.6,0 0.6,0.62 0,1.17 -0.35,1.34 -0.86,0.42 z m 13.88,0 c 0,-0.36 0.26,-0.66 0.59,-0.66 0.32,0 0.59,0.3 0.59,0.66 0,0.37 -0.27,0.67 -0.59,0.67 -0.33,0 -0.59,-0.3 -0.59,-0.67 z m -26.62,-1.33 c 0,-0.37 0.26,-0.67 0.59,-0.67 0.32,0 0.59,0.3 0.59,0.67 0,0.36 -0.27,0.67 -0.59,0.67 -0.33,0 -0.59,-0.31 -0.59,-0.67 z m 7.69,0 c 0,-0.37 0.28,-0.67 0.62,-0.67 0.35,0 0.47,0.3 0.27,0.67 -0.21,0.36 -0.49,0.67 -0.63,0.67 -0.14,0 -0.26,-0.31 -0.26,-0.67 z m 68.03,-2.01 c 0,-0.36 0.26,-0.66 0.59,-0.66 0.32,0 0.59,0.3 0.59,0.66 0,0.37 -0.27,0.67 -0.59,0.67 -0.33,0 -0.59,-0.3 -0.59,-0.67 z m -36.09,-2.96 c 0,-0.57 0.27,-1.04 0.59,-1.04 0.33,0 0.59,0.28 0.59,0.63 0,0.34 -0.26,0.81 -0.59,1.04 -0.32,0.22 -0.59,-0.1 -0.59,-0.63 z m -21.89,-0.71 c 0,-0.55 0.27,-1 0.6,-1 0.32,0 0.59,0.45 0.59,1 0,0.55 -0.27,1 -0.59,1 -0.33,0 -0.6,-0.45 -0.6,-1 z m -7.69,-1 c 0,-0.37 0.27,-0.67 0.6,-0.67 0.32,0 0.59,0.3 0.59,0.67 0,0.37 -0.27,0.67 -0.59,0.67 -0.33,0 -0.6,-0.3 -0.6,-0.67 z m 18.93,0 c 0,-0.37 0.27,-0.67 0.6,-0.67 0.32,0 0.59,0.3 0.59,0.67 0,0.37 -0.27,0.67 -0.59,0.67 -0.33,0 -0.6,-0.3 -0.6,-0.67 z m -36.08,-1.04 c 0,-0.57 0.27,-0.85 0.6,-0.62 0.33,0.23 0.45,0.7 0.26,1.04 -0.51,0.93 -0.86,0.75 -0.86,-0.42 z m 9.76,-2.96 c 0.2,-0.37 0.48,-0.67 0.63,-0.67 0.14,0 0.26,0.3 0.26,0.67 0,0.36 -0.28,0.66 -0.63,0.66 -0.34,0 -0.46,-0.3 -0.26,-0.66 z m 57.68,0 c 0,-0.37 0.26,-0.67 0.59,-0.67 0.32,0 0.59,0.3 0.59,0.67 0,0.36 -0.27,0.66 -0.59,0.66 -0.33,0 -0.59,-0.3 -0.59,-0.66 z m -47.01,-1.29 c -0.18,-0.35 -0.1,-0.81 0.26,-1.04 0.33,-0.24 0.61,0 0.61,0.62 0,1.17 -0.36,1.34 -0.87,0.42 z m 17.43,-0.72 c 0,-0.36 0.26,-0.66 0.59,-0.66 0.33,0 0.59,0.3 0.59,0.66 0,0.37 -0.26,0.67 -0.59,0.67 -0.33,0 -0.59,-0.3 -0.59,-0.67 z m 89.03,-1.57 c 4.33,-1.72 10.47,-5.39 13.75,-8.2 1.06,-0.9 1.92,-1.51 1.92,-1.35 0,0.16 1.13,-0.88 2.52,-2.31 1.38,-1.43 2.84,-2.46 3.24,-2.29 0.41,0.18 0.67,0.1 0.59,-0.24 -0.1,-0.3 1.59,-2.29 3.71,-4.42 2.11,-2.14 6.64,-6.81 10.05,-10.39 7.98,-8.35 16.95,-16.19 17.84,-15.56 0.41,0.28 0.53,0.18 0.29,-0.25 -0.37,-0.67 0.96,-1.65 8.68,-6.42 1.57,-0.97 3.1,-1.59 3.4,-1.38 0.31,0.21 0.55,0.1 0.55,-0.27 0,-0.95 11.49,-5.88 18.15,-7.78 3.13,-0.9 5.78,-1.74 5.89,-1.86 0.18,-0.2 -4.3,-1.4 -14.4,-3.87 -3.91,-0.96 -17.8,-0.92 -21.47,0 -8.3,2.2 -15.6,6.05 -22.2,11.72 -8.79,7.54 -11.65,11.83 -18.97,28.38 -5.52,12.48 -8.83,17.29 -14.57,21.18 -2.86,1.95 -6.96,3.81 -6.96,3.16 0,-0.13 1.2,-0.92 2.67,-1.74 1.47,-0.83 3.1,-2.05 3.64,-2.72 0.53,-0.67 1.33,-1.21 1.77,-1.21 0.44,0 0.79,-0.29 0.79,-0.64 0,-0.35 0.6,-1.34 1.33,-2.2 4.17,-4.9 5.04,-6.46 10.3,-18.53 5.29,-12.14 7.25,-15.47 12.59,-21.42 7.48,-8.34 16.81,-14.56 25.47,-17 13.57,-3.83 25.21,-2.85 39.93,3.35 6.63,2.79 10.24,3.43 11.85,2.08 1.16,-0.97 1.15,-1 -0.24,-4 -0.77,-1.66 -3.03,-4.83 -5.02,-7.03 -9.8,-10.84 -24.16,-20.5 -34.69,-23.34 -13.54,-3.66 -30.48,-3.58 -44.66,0.21 -0.65,0.17 -3.58,0.79 -6.5,1.36 -11.33,2.23 -18.15,4.14 -22.43,6.28 -4.45,2.22 -11.44,8.04 -15.29,12.74 -1.97,2.41 -3.11,3.48 -2.54,2.37 0.58,-1.1 1.48,-2.37 1.99,-2.83 0.51,-0.46 0.72,-0.84 0.46,-0.84 -0.25,0 0.59,-1.42 1.86,-3.17 1.59,-2.16 2.65,-4.55 3.34,-7.51 0.56,-2.39 1.24,-5.09 1.51,-6.01 2.38,-8.08 7.29,-33.53 8.57,-44.4 2.17,-18.37 4.07,-58.46 2.8,-58.93 -1.82,-0.69 -5.69,-4.63 -8.48,-8.62 -3.56,-5.12 -6.31,-9.74 -6.54,-11.03 -0.1,-0.47 -0.32,-1.01 -0.52,-1.2 -0.8,-0.71 -5.16,-11.27 -6.62,-16.02 -3.39,-10.98 -6.32,-26.77 -6.32,-34.05 0,-5.48 1.38,-13.76 3.03,-18.08 0.7,-1.83 1.35,-3.23 1.44,-3.12 0.1,0.1 -0.35,2.44 -1,5.18 -1.42,5.96 -1.73,20.71 -0.56,27.04 3.49,18.95 8.14,32.56 15.22,44.49 1.74,2.94 2.99,5.7 2.78,6.13 -0.22,0.43 -0.17,0.55 0.1,0.27 0.28,-0.29 1.72,0.83 3.2,2.47 2.91,3.22 7.14,5.73 7.13,4.23 0,-0.47 -0.41,-1.72 -0.9,-2.8 -2.76,-5.97 -5.06,-16.89 -4.94,-23.41 0.1,-3.23 0.1,-3.15 1.12,2.33 1.84,10.01 5.28,22.5 6.97,25.37 0.54,0.92 0.99,1.82 1.01,2 0,0.19 0.76,1.62 1.65,3.18 0.88,1.56 2.24,3.97 3.01,5.36 2.03,3.65 7.26,9.94 10.07,12.1 3.61,2.78 6.33,3.61 9.08,2.78 4.95,-1.51 7.01,-7.19 6.47,-17.86 -0.29,-5.84 -0.21,-6.89 0.54,-6.89 0.49,0 2.15,-1.43 3.71,-3.19 3.5,-3.95 4.38,-7.18 3.56,-13.08 -0.79,-5.69 -0.92,-6.04 -3.22,-8.9 -2.16,-2.69 -5.38,-9.34 -4.82,-9.96 0.18,-0.21 0.79,0.63 1.35,1.85 0.78,1.71 3.83,6.77 5.91,9.8 0.47,0.69 2.71,-1.61 4.27,-4.37 7.77,-13.77 8.94,-40.03 2.45,-55.36 -2.38,-5.63 -4.33,-8.72 -8.91,-14.11 -6.13,-7.22 -13.52,-12.63 -20.8,-15.22 -1.85,-0.66 -3.28,-1.29 -3.18,-1.4 0.1,-0.11 1.82,0.12 3.82,0.52 3.57,0.71 7.01,0.1 11.66,-2.1 0.65,-0.31 1.85,-0.77 2.66,-1.03 0.81,-0.26 2.89,-1.19 4.6,-2.07 1.72,-0.89 3.45,-1.4 3.85,-1.14 0.39,0.26 0.52,0.22 0.28,-0.1 -0.24,-0.3 1.62,-1.73 4.14,-3.17 20.53,-11.76 32.17,-22.35 36.17,-32.87 2.63,-6.94 5.32,-19.54 4.49,-21.05 -0.27,-0.5 -1.82,-0.69 -4.35,-0.55 -4.91,0.28 -5.22,-0.82 -0.97,-3.39 1.63,-0.99 4.42,-2.67 6.21,-3.76 9.72,-5.88 23.15,-19.4 30.91,-31.14 1.91,-2.89 1.96,-3.27 0.59,-4.57 -6.13,-5.8 -11.12,-8.72 -17.8,-10.4 -5.52,-1.38 -15.04,-0.93 -23.16,1.1 -3.09,0.77 -6.15,1.51 -6.8,1.65 -0.65,0.14 -2.12,0.54 -3.26,0.9 -1.14,0.35 -4.2,1.29 -6.8,2.07 -4.43,1.34 -12.11,4.12 -14.79,5.36 -0.65,0.3 -2.11,0.93 -3.25,1.39 -3.63,1.49 -13.2,7.03 -16.57,9.6 -5.44,4.14 -10.64,9.7 -14.36,15.36 -1.94,2.95 -3.68,5.82 -3.87,6.37 -0.19,0.55 -1.19,2.71 -2.24,4.8 -3.94,7.89 -8.12,23.04 -8.81,31.92 -0.12,1.66 -0.27,6.76 -0.32,11.35 -0.1,7.17 -0.18,7.97 -0.71,5.68 -1.03,-4.49 -0.81,-20.64 0.36,-26.71 1.56,-8.03 3.68,-14.66 6.92,-21.61 7.23,-15.54 13.28,-23.09 25.1,-31.33 1.44,-1 11.29,-6.4 13.19,-7.23 1.31,-0.57 1.09,-1.03 -6.02,-13.12 -7.51,-12.75 -11.02,-18.11 -16.89,-25.85 -6.79,-8.93 -5.36,-8.11 3.33,1.91 6.75,7.78 16.49,23.88 18.64,30.8 0.17,0.55 0.46,0.85 0.65,0.66 0.41,-0.43 -5.17,-16.53 -7.98,-23.02 -1.72,-3.98 -3.36,-7.23 -7.76,-15.33 -0.39,-0.72 -1.04,-1.72 -1.45,-2.22 -0.41,-0.5 -1.04,-1.55 -1.41,-2.32 -0.37,-0.78 -0.9,-1.73 -1.18,-2.12 -1.84,-2.52 -5.24,-7.62 -5.24,-7.86 0,-0.42 -8.13,-10.25 -12.13,-14.67 -8.67,-9.58 -22.72,-19.32 -31.06,-21.54 -2.39,-0.63 -6.72,-1.02 -11.46,-1.03 -7.69,0 -15.15,-1.08 -15.15,-2.17 0,-0.32 -0.27,-0.4 -0.6,-0.17 -0.33,0.23 -1.4,0 -2.37,-0.58 -2.19,-1.23 -2.22,-0.96 -0.14,1.25 3.24,3.43 7.34,5.47 13.46,6.68 16.09,3.19 20.78,4.99 27.78,10.64 7.43,5.99 11.51,11.83 14.49,20.73 1.07,3.17 1.39,5.67 1.53,12.02 0.18,7.36 0.14,7.66 -0.4,3.67 -1.52,-11.17 -4.16,-19.69 -7.7,-24.93 -1.75,-2.58 -7.6,-9.24 -7.6,-8.65 0,0.14 -0.87,-0.47 -1.93,-1.37 -2.88,-2.44 -8.87,-5.66 -12.71,-6.83 -3.51,-1.07 -13.32,-2.95 -13.64,-2.62 -0.22,0.22 3.96,3.04 13.28,8.97 3.63,2.31 7.37,4.99 8.31,5.96 0.94,0.97 1.93,1.8 2.2,1.84 0.27,0 2.31,2.07 4.53,4.5 7.43,8.15 10.97,15.14 14.41,28.47 4.53,17.52 8.49,24.83 16.96,31.25 3.95,2.99 10.47,5.41 14.88,5.51 1.06,0 2.45,0.33 3.1,0.68 1.67,0.89 -10.67,0.1 -13.31,-0.85 -3.54,-1.27 -9.25,-5.77 -12.76,-10.06 -3.99,-4.86 -6.55,-10.59 -9.47,-21.17 -4.89,-17.71 -7.12,-22.79 -13.06,-29.78 -6.24,-7.33 -10.17,-10.43 -23.86,-18.82 -10.73,-6.57 -22.94,-15.84 -24.57,-18.63 -2.06,-3.56 0,-3.62 8,-0.24 4.65,1.97 5.56,2.13 12.13,2.11 7.94,0 17.12,1.27 20.7,2.94 13.33,6.19 27.8,18.83 37.81,33.02 1.17,1.66 2.48,3.46 2.93,4.01 1.56,1.93 8.07,12.6 8.07,13.22 0,0.35 0.38,1 0.86,1.44 2.78,2.61 11.19,22.27 14.88,34.8 1.23,4.17 2.45,7.26 2.82,7.13 0.36,-0.12 2.74,-0.96 5.28,-1.87 5.41,-1.93 5.27,-1.08 1.9,-11.99 -1.19,-3.86 -2.39,-8.21 -2.68,-9.68 -0.28,-1.47 -0.79,-3.9 -1.12,-5.41 -2.13,-9.52 -5.99,-40.8 -5.98,-48.41 0,-2.1 -0.63,-4.65 -2,-8.01 -3.02,-7.39 -3.83,-12.24 -4.2,-24.96 -0.52,-18.09 -2.46,-31.12 -6.49,-43.73 -0.88,-2.76 -1.82,-5.76 -2.08,-6.68 -0.6,-2.08 -1.98,-5.76 -4.21,-11.23 -0.94,-2.32 -1.72,-4.33 -1.72,-4.48 0,-1.06 -6.54,-12.71 -9.64,-17.17 -3.89,-5.6 -11.24,-13.94 -15.46,-17.54 -4.31,-3.68 -10.09,-9.19 -11.12,-10.6 -0.56,-0.77 -1.02,-1.15 -1.03,-0.84 0,1.75 11.18,24.1 17.14,34.15 3.45,5.82 10.65,19.37 10.65,20.06 0,1.47 -13.97,-20.85 -17.15,-27.4 -1.07,-2.2 -2.41,-4.76 -2.96,-5.68 -1.74,-2.86 -6.93,-14.14 -8.59,-18.69 -2.83,-7.76 -3.37,-8.85 -3.91,-7.89 -0.68,1.2 -0.63,10.54 0.1,16.08 0.32,2.48 1.51,7.74 2.64,11.69 1.98,6.92 2.82,8.62 10.66,21.65 0.33,0.54 3.83,6.52 7.79,13.28 3.96,6.76 8.2,13.79 9.42,15.63 l 2.22,3.33 -2.83,-3 c -3.15,-3.35 -5.16,-6.3 -11.69,-17.05 -6.39,-10.54 -9.43,-16.31 -9,-17.09 0.21,-0.38 -0.45,-0.2 -1.46,0.39 -1.62,0.94 -1.84,1.41 -1.84,3.89 0,2.93 2.57,12.16 5.14,18.51 0.82,2.02 2.01,5.15 2.64,6.96 4.89,13.95 14.7,29.42 30.08,47.45 6.3,7.37 8.9,11.64 12.04,19.7 2.18,5.59 5.19,15.49 4.83,15.89 -0.15,0.17 -0.52,-0.4 -0.83,-1.28 -1.84,-5.31 -9.24,-21.87 -10.81,-24.2 -1.03,-1.52 -4.39,-5.66 -7.47,-9.2 -3.29,-3.78 -5.43,-6.75 -5.19,-7.2 0.24,-0.43 0.1,-0.67 -0.33,-0.57 -0.41,0.1 -3.09,-3.12 -5.97,-7.16 -2.88,-4.04 -5.6,-7.83 -6.04,-8.44 -1.67,-2.25 -6.68,-11.04 -8.2,-14.36 -2.12,-4.67 -8.55,-21.73 -9.89,-26.27 -2.54,-8.62 -2.76,-12.23 -0.86,-14.69 0.64,-0.83 0.5,-1.72 -0.86,-5.34 -2.62,-6.96 -4.68,-13.99 -5.66,-19.24 -1.02,-5.51 -1.23,-19.17 -0.3,-19.82 0.33,-0.23 0.47,-0.67 0.3,-0.97 -0.16,-0.3 0.1,-0.9 0.55,-1.33 1.02,-0.96 2.77,-0.1 4.1,2.07 1.91,3.07 8.02,9.69 13.38,14.47 11.66,10.42 20.89,22.67 26.4,35.01 5.44,12.19 10.7,29.11 12.86,41.36 1.77,10 2.09,13.45 2.71,29.23 0.37,9.24 0.81,13.69 1.77,17.65 0.7,2.92 1.49,5.73 1.75,6.26 0.74,1.48 1.21,-3.18 1.83,-18.12 0.31,-7.41 0.82,-16.77 1.15,-20.81 0.32,-4.04 0.87,-11.25 1.23,-16.02 0.96,-12.84 1.64,-19.25 3.56,-33.72 0.66,-4.93 0.41,-9.61 -0.58,-10.98 -0.59,-0.8 -2.69,-7.72 -3.93,-12.93 -4.07,-17.11 -4.7,-34.87 -1.76,-49.86 0.43,-2.2 1.13,-5.75 1.54,-7.87 0.42,-2.13 0.99,-4.03 1.26,-4.22 0.27,-0.18 0.49,-1.04 0.49,-1.89 0,-0.85 1.08,-4 2.41,-6.99 1.94,-4.38 3.03,-5.96 5.63,-8.17 1.77,-1.51 3.33,-3.38 3.47,-4.16 0.14,-0.78 0.38,-5.17 0.52,-9.76 0.37,-11.9 2.6,-18.6 8.59,-25.87 4.89,-5.93 9.59,0.8 13.19,18.86 0.29,1.47 0.86,8.32 1.27,15.23 1.2,20.5 -0.85,40.19 -5.51,52.87 -0.4,1.1 -0.94,2.6 -1.19,3.34 -6.43,18.84 -9.87,27.83 -15.11,39.42 l -4.24,9.37 -0.66,7.98 c -0.37,4.39 -1.09,11.29 -1.61,15.33 -2.6,20.06 -3.41,37.35 -3.02,63.76 0.19,12.3 0.63,25.37 0.98,29.04 1.81,18.99 2.57,25.42 3.92,33.05 0.82,4.59 1.7,9.09 1.98,10.01 0.27,0.92 1.07,3.84 1.78,6.5 0.7,2.65 1.52,4.99 1.82,5.2 0.3,0.21 3.81,-0.5 7.8,-1.57 3.99,-1.08 8.86,-2.36 10.81,-2.85 5.24,-1.33 20.48,-1.24 24.25,0.15 4.15,1.52 8.58,3.95 8.58,4.7 0,0.35 0.23,0.48 0.5,0.28 0.9,-0.62 8.96,6.92 8.96,8.38 0,2.96 -14.03,20.09 -23.57,28.78 -1.95,1.78 -10.65,7.85 -11.25,7.85 -0.29,0 -0.83,0.41 -1.2,0.91 -0.53,0.72 -0.34,1.17 0.89,2.07 1.52,1.13 1.55,1.29 1.14,5.89 -0.48,5.6 -3.67,17 -6.08,21.76 -1.55,3.06 -5.46,8.82 -6.95,10.24 -4.35,4.12 -13.11,10.91 -18.34,14.2 -7.68,4.82 -9.29,5.68 -9.89,5.26 -0.35,-0.25 -0.48,-0.15 -0.28,0.21 0.72,1.32 -12.48,7.33 -18.37,8.37 -2.36,0.42 -4.29,0.97 -4.29,1.23 0,0.25 0.84,0.86 1.87,1.34 8.14,3.8 19.72,16.77 23.52,26.32 3.28,8.26 4.15,14.2 3.94,26.71 -0.19,10.63 -0.41,12.77 -2.1,20.29 -0.96,4.3 -3.52,9.83 -6.02,13.04 l -2.2,2.82 0.6,5.03 c 0.91,7.68 -0.76,12.78 -5.37,16.4 l -2.33,1.84 v 7.01 c 0,10.27 -1.68,14.85 -6.34,17.4 -6.06,3.31 -12.68,-0.43 -21.05,-11.89 -0.87,-1.2 -1.69,-2.17 -1.82,-2.17 -0.14,0 -0.43,5.18 -0.66,11.51 -0.84,23.42 -2.4,39.1 -5.41,54.25 -0.44,2.2 -0.96,4.91 -1.17,6.01 -0.82,4.5 -3.31,16.16 -3.85,18.07 -1.19,4.21 -1.07,4.28 4.3,2.6 2.69,-0.84 7.28,-2.02 10.21,-2.62 2.92,-0.61 7.05,-1.52 9.17,-2.03 10.7,-2.58 14.28,-3.18 23.95,-4 7.24,-0.62 17.54,0.62 25.74,3.1 2.44,0.73 5.03,1.5 5.76,1.7 0.74,0.19 1.33,0.64 1.33,0.99 0,0.34 0.21,0.48 0.45,0.31 0.74,-0.51 11.7,6.05 11.52,6.9 -0.1,0.43 0.11,0.59 0.44,0.36 1.19,-0.83 9.53,6.3 16.37,14.01 5.11,5.75 6.57,8.93 5.53,12.03 -0.86,2.54 -2.25,2.94 -8.42,2.43 -3.12,-0.26 -6.57,-0.23 -7.65,0 -3.35,0.88 -9.01,2.63 -10.25,3.17 -11.92,5.2 -18.21,8.85 -25.87,15.01 -5.83,4.69 -8.53,7.27 -20.27,19.4 -9.75,10.07 -19.88,18.79 -20.97,18.03 -0.36,-0.25 -0.58,-0.1 -0.49,0.35 0.21,1.01 -7.72,4.36 -11.69,4.94 -2.93,0.43 -2.93,0.43 1.21,-1.21 z m -13.99,-90.11 c 0.7,-0.95 3.62,-13.34 5.7,-24.15 0.56,-2.94 1.24,-6.24 1.5,-7.34 0.27,-1.11 0.89,-5.01 1.39,-8.68 0.5,-3.68 1.2,-8.78 1.55,-11.35 0.35,-2.57 0.7,-6.33 0.79,-8.35 0.1,-2.02 0.54,-11.69 0.99,-21.49 l 0.82,-17.83 -1.56,-3.21 c -2.97,-6.11 -3.23,-5.27 -3.63,11.62 -0.2,8.37 -0.63,18.08 -0.96,21.56 -0.32,3.49 -0.73,8.45 -0.91,11.02 -0.63,9.2 -2.27,20.07 -5.13,34.05 -0.98,4.77 -1.99,9.73 -2.25,11.02 -0.26,1.28 -1.16,5.34 -2,9.01 -0.84,3.67 -1.53,6.91 -1.53,7.19 0,0.7 4.33,-1.85 5.23,-3.07 z m 67.41,-334.17 c 0.61,-0.44 0.46,-1.35 -0.73,-4.39 -3.38,-8.61 -5.91,-22.2 -7.71,-41.44 -1.51,-16.15 -1.8,-24.01 -1.8,-49.07 0,-20.65 0.68,-38.71 1.68,-44.39 0.13,-0.74 0.42,-3.14 0.64,-5.34 0.22,-2.21 0.65,-5.66 0.94,-7.68 1.87,-12.72 2.45,-16.47 2.68,-17.36 0.15,-0.6 -0.46,-1.46 -1.51,-2.14 -0.97,-0.63 -1.78,-0.93 -1.79,-0.67 -0.19,5.46 -1.39,18.18 -2.67,28.18 -0.32,2.55 -1.69,20.45 -2.65,34.72 -0.34,4.95 -0.78,11.56 -0.99,14.68 -0.67,9.95 -0.52,36.1 0.24,41.06 0.4,2.57 1.14,7.83 1.67,11.69 0.52,3.85 1.19,8.36 1.5,10.01 1.96,10.73 2.58,13.65 4.19,19.98 0.99,3.88 2,8 2.26,9.15 0.25,1.15 0.64,2.43 0.86,2.84 0.48,0.87 2.08,0.96 3.19,0.17 z m 0.35,-184.91 c 2.39,-5.39 5.33,-12.5 6.55,-15.81 1.21,-3.3 2.43,-6.6 2.72,-7.34 3.33,-8.66 8.52,-25.26 9.47,-30.26 2.19,-11.53 2.77,-35.1 1.21,-49.19 -1.04,-9.38 -5.67,-22.62 -8.25,-23.55 -1.24,-0.45 -5.32,5.09 -7.63,10.35 -2.06,4.71 -2.13,5.14 -2.55,15.04 -0.24,5.6 -0.71,10.94 -1.04,11.88 -0.33,0.93 -1.65,2.52 -2.93,3.52 -3.15,2.46 -4.44,4.24 -6.18,8.52 -2,4.9 -2.62,6.88 -3.74,11.96 -0.52,2.39 -1.2,5.42 -1.51,6.74 -0.3,1.32 -0.96,6.39 -1.46,11.27 -1.12,10.84 -0.55,20.55 2.06,34.85 1.14,6.29 7.39,22.89 8.35,22.22 0.33,-0.22 2.54,-4.82 4.93,-10.2 z m -3.46,-23.14 c -0.74,-5.87 0,-38.77 1.12,-47.41 1.72,-13.73 2.09,-14.88 1.8,-5.68 -0.14,4.59 -0.54,13.46 -0.89,19.7 -0.35,6.24 -0.84,17.21 -1.08,24.37 -0.38,11.12 -0.52,12.43 -0.95,9.02 z m 10.52,-27.49 c -0.66,-5.2 -0.43,-30.07 0.39,-42.95 0.61,-9.56 2.77,-25.81 3.35,-25.16 0.13,0.15 0,4 -0.38,8.55 -1.48,19.55 -1.7,24.22 -2.17,45.98 -0.2,9.37 -0.44,17.13 -0.53,17.25 -0.1,0.12 -0.39,-1.53 -0.66,-3.67 z m -160.81,660.06 c -0.2,-0.37 0,-0.67 0.56,-0.67 0.51,0 0.92,0.3 0.92,0.67 0,0.36 -0.25,0.67 -0.55,0.67 -0.31,0 -0.72,-0.31 -0.93,-0.67 z m 6.81,0 c 0,-0.37 0.26,-0.67 0.59,-0.67 0.32,0 0.59,0.3 0.59,0.67 0,0.36 -0.27,0.67 -0.59,0.67 -0.33,0 -0.59,-0.31 -0.59,-0.67 z m 27.8,0 c 0,-0.37 0.27,-0.67 0.59,-0.67 0.33,0 0.59,0.3 0.59,0.67 0,0.36 -0.26,0.67 -0.59,0.67 -0.32,0 -0.59,-0.31 -0.59,-0.67 z m -49.39,-1.34 c 0.2,-0.37 0.61,-0.67 0.92,-0.67 0.3,0 0.55,0.3 0.55,0.67 0,0.37 -0.41,0.67 -0.92,0.67 -0.5,0 -0.75,-0.3 -0.55,-0.67 z m 7.39,-1.33 c 0,-0.37 0.28,-0.67 0.63,-0.67 0.34,0 0.46,0.3 0.26,0.67 -0.2,0.36 -0.49,0.66 -0.63,0.66 -0.14,0 -0.26,-0.3 -0.26,-0.66 z m -21.3,-1.34 c 0,-0.37 0.27,-0.67 0.6,-0.67 0.32,0 0.59,0.3 0.59,0.67 0,0.37 -0.27,0.67 -0.59,0.67 -0.33,0 -0.6,-0.3 -0.6,-0.67 z m 52.65,0 c 0,-0.37 0.27,-0.67 0.59,-0.67 0.33,0 0.6,0.3 0.6,0.67 0,0.37 -0.27,0.67 -0.6,0.67 -0.32,0 -0.59,-0.3 -0.59,-0.67 z m -2.36,-1.63 c 0,-0.57 0.26,-1.04 0.59,-1.04 0.32,0 0.59,0.28 0.59,0.63 0,0.34 -0.27,0.81 -0.59,1.04 -0.33,0.23 -0.59,-0.1 -0.59,-0.63 z m -6.51,-1.08 c 0,-0.39 0.27,-0.52 0.59,-0.29 0.33,0.22 0.59,0.54 0.59,0.7 0,0.17 -0.26,0.3 -0.59,0.3 -0.32,0 -0.59,-0.32 -0.59,-0.71 z m -15.68,-3.85 c -3.9,-1.72 -9.62,-4 -12.72,-5.05 -3.09,-1.06 -6.01,-2.07 -6.5,-2.26 -0.49,-0.18 -1.29,-0.41 -1.78,-0.49 -0.48,-0.1 -2.61,-0.52 -4.73,-0.96 -9.65,-2 -21.1,-2.59 -25.91,-1.34 -1.41,0.36 -4.75,1.83 -7.43,3.27 -2.69,1.43 -6.42,3.05 -8.29,3.61 -2.99,0.88 -3.77,0.88 -6.26,0 -4.28,-1.44 -5.91,-4.98 -3.71,-8.04 2.38,-3.31 4.13,-3.93 10.74,-3.83 3.94,0.1 6.3,0.38 6.43,0.84 0.12,0.41 0.46,0.58 0.75,0.37 0.29,-0.2 1.66,0 3.05,0.43 1.55,0.48 6.09,0.74 11.7,0.67 12.95,-0.18 27.86,2.67 37.56,7.16 2.7,1.25 14.04,7.83 14.29,8.29 0.36,0.66 0.89,0.86 -7.19,-2.72 z m -18.33,1.22 c -0.21,-0.37 0,-0.67 0.55,-0.67 0.51,0 0.92,0.3 0.92,0.67 0,0.37 -0.25,0.67 -0.55,0.67 -0.31,0 -0.72,-0.3 -0.92,-0.67 z m 61.34,-0.13 c -0.86,-0.97 -0.92,-1.87 -0.14,-1.87 0.31,0 0.86,0.6 1.2,1.33 0.7,1.47 0.1,1.8 -1.06,0.54 z m -25.56,-1.2 c 0,-0.37 0.27,-0.67 0.6,-0.67 0.32,0 0.59,0.3 0.59,0.67 0,0.36 -0.27,0.66 -0.59,0.66 -0.33,0 -0.6,-0.3 -0.6,-0.66 z m 34.31,-0.67 c 0,-0.37 0.27,-0.67 0.6,-0.67 0.32,0 0.59,0.3 0.59,0.67 0,0.36 -0.27,0.67 -0.59,0.67 -0.33,0 -0.6,-0.31 -0.6,-0.67 z m -43.72,-4.52 c -3.9,-3.92 -15.43,-19.59 -15.43,-20.97 0,-0.43 -0.15,-0.6 -0.34,-0.39 -0.19,0.21 -1.99,-1.02 -4.01,-2.73 -6,-5.06 -14.31,-11.63 -16.98,-13.41 -0.8,-0.53 -3.16,-2.15 -5.26,-3.59 l -3.81,-2.63 -6.11,0.1 c -5.01,0.1 -6.51,-0.14 -8.38,-1.22 -3.43,-1.97 -3.72,-6.19 -0.5,-7.04 3.35,-0.88 7.75,-0.62 7.18,0.43 -0.27,0.49 -0.16,0.59 0.3,0.27 0.95,-0.67 8.28,3.32 9.81,5.33 0.65,0.85 4.38,3.85 8.28,6.66 3.91,2.81 8,5.91 9.09,6.89 1.09,0.98 2.53,2.22 3.19,2.75 1.17,0.96 1.18,0.95 0.23,-1.12 -0.53,-1.16 -1.22,-2.28 -1.53,-2.5 -0.31,-0.22 -1.98,-2.97 -3.7,-6.13 -1.73,-3.15 -3.73,-6.83 -4.46,-8.16 -1.69,-3.08 -6.73,-14.26 -6.52,-14.48 0.23,-0.24 15.83,26.16 15.83,26.79 0,0.15 0.51,0.96 1.13,1.78 5.53,7.39 13.58,19.47 13.31,19.96 -0.18,0.34 -0.1,0.53 0.25,0.43 0.33,-0.1 1.83,1.62 3.35,3.82 1.52,2.2 3.87,5.37 5.23,7.03 1.35,1.66 2.97,3.69 3.59,4.51 2.08,2.74 0.1,1.48 -3.74,-2.37 z m 24.79,2.51 c 0,-0.36 0.27,-0.66 0.6,-0.66 0.32,0 0.59,0.3 0.59,0.66 0,0.37 -0.27,0.67 -0.59,0.67 -0.33,0 -0.6,-0.3 -0.6,-0.67 z m -6.5,-0.66 c 0,-0.37 0.26,-0.67 0.59,-0.67 0.32,0 0.59,0.3 0.59,0.67 0,0.36 -0.27,0.66 -0.59,0.66 -0.33,0 -0.59,-0.3 -0.59,-0.66 z m 14.79,0 c 0,-0.37 0.26,-0.67 0.59,-0.67 0.32,0 0.59,0.3 0.59,0.67 0,0.36 -0.27,0.66 -0.59,0.66 -0.33,0 -0.59,-0.3 -0.59,-0.66 z m -37.56,-0.68 c 0.2,-0.37 0.62,-0.51 0.92,-0.3 0.82,0.58 0.67,0.98 -0.37,0.98 -0.51,0 -0.76,-0.31 -0.55,-0.68 z m 5.95,-8.17 c -12.37,-13.3 -20.16,-23.85 -28.05,-38.01 -3.74,-6.73 -8.63,-16.57 -8.23,-16.57 0.14,0 2.09,3.08 4.33,6.85 4.56,7.64 16.6,26.22 19.43,29.97 1,1.34 2.6,3.53 3.54,4.86 0.93,1.34 1.79,2.33 1.91,2.2 0.11,-0.13 -0.7,-2.66 -1.8,-5.61 -3.27,-8.76 -5.6,-17.76 -6.92,-26.78 -1.05,-7.22 -1.2,-10.35 -0.94,-21.02 0.28,-12.2 0.25,-12.61 -1.12,-15.72 -1.48,-3.35 -6.55,-9.36 -12.07,-14.29 -3.6,-3.23 -11.12,-9.19 -11.59,-9.19 -0.16,0 -1.68,-0.98 -3.37,-2.17 -4.67,-3.29 -13.78,-8.17 -19.05,-10.2 -1.63,-0.62 -3.36,-1.3 -3.84,-1.51 -3.39,-1.42 -6.94,-2.21 -11.62,-2.58 -5.98,-0.47 -10.38,0.73 -12.63,3.43 -1.16,1.39 -1.16,1.39 1.04,2.7 5.59,3.31 8.97,5.86 8.62,6.5 -0.23,0.41 -0.1,0.49 0.31,0.21 0.76,-0.53 8.37,7.39 11.49,11.96 l 1.82,2.67 -2.32,-2.33 c -1.27,-1.29 -2.45,-2.5 -2.62,-2.7 -1.13,-1.34 -11.17,-10.37 -15,-13.5 -5.4,-4.42 -7.75,-5.19 -10.43,-3.4 -3.5,2.33 -5.93,9.65 -5.93,17.84 0,5.65 2.4,18.5 5.1,27.27 3.81,12.36 12.03,30.49 20.84,45.92 4.21,7.38 2.48,5.72 -3.2,-3.07 -11.82,-18.31 -19.26,-36.64 -23.03,-56.7 -2.24,-11.96 -1.86,-21.74 1.11,-28.22 1.17,-2.54 4.98,-6.14 6.56,-6.17 0.66,0 2.26,-0.5 3.56,-1.07 7.6,-3.32 9.05,-3.73 13.31,-3.74 5.33,0 11.22,1.69 20.33,5.91 19.59,9.05 32.85,19.18 40.62,31 1.7,2.59 3.21,4.56 3.37,4.38 0.16,-0.18 0.89,-3.72 1.63,-7.87 1.79,-10.07 4.83,-22.18 7.1,-28.25 0.42,-1.1 1.34,-3.66 2.06,-5.68 3.78,-10.58 13.84,-29.84 20.41,-39.05 6.76,-9.49 10.16,-12.28 13.83,-11.37 1.53,0.38 1.92,0.1 4.21,-3.47 1.38,-2.13 3.62,-4.77 4.96,-5.87 2.09,-1.7 2.99,-1.99 6.1,-1.99 3.01,0 3.91,0.27 5.12,1.55 0.81,0.86 1.6,2.21 1.77,3.01 0.16,0.8 0.82,3.55 1.47,6.12 1.9,7.63 2.99,14.78 6.32,41.73 0.53,4.22 1.08,8.58 1.24,9.68 0.16,1.1 0.71,8.61 1.23,16.69 0.8,12.39 0.84,16.72 0.25,27.71 -0.39,7.23 -1.23,15.83 -1.88,19.36 -0.65,3.49 -1.18,6.93 -1.18,7.66 0,2.64 -2.5,12.47 -4.45,17.47 -0.45,1.16 -0.82,2.29 -0.82,2.52 0,1.5 -9.71,21.75 -10.43,21.75 -0.11,0 0.49,-1.73 1.34,-3.84 0.84,-2.11 2.6,-6.69 3.9,-10.18 1.31,-3.49 2.57,-6.64 2.81,-7.01 0.42,-0.65 2.69,-7.57 4.05,-12.35 1.12,-3.96 3.11,-15.97 3.97,-24.03 0.9,-8.47 0.75,-40.99 -0.24,-50.08 -1.04,-9.62 -4.23,-35.77 -5.17,-42.39 -2.28,-16.12 -5.11,-24.38 -8.34,-24.36 -1.89,0 -6.9,3.75 -10.02,7.48 -4.9,5.85 -8.53,14.98 -12.02,30.23 -2.43,10.6 -5.85,21.78 -5.92,19.33 0,-0.39 1.03,-5.35 2.31,-11.02 2.48,-11.02 5.02,-19.67 7.83,-26.66 1.96,-4.9 1.85,-7.03 -0.37,-7.51 -0.81,-0.17 -1.34,-0.1 -1.18,0.21 0.16,0.29 -0.4,1.08 -1.25,1.74 -0.85,0.67 -2.09,1.88 -2.76,2.69 -0.67,0.82 -1.51,1.29 -1.87,1.06 -0.36,-0.23 -0.46,-0.18 -0.23,0.12 0.24,0.29 -0.91,2.34 -2.54,4.54 -8.64,11.67 -19.88,35.35 -25.05,52.79 -8.4,28.34 -8.9,58.55 -1.37,82.88 1.18,3.84 6.02,15.57 7.71,18.7 1.52,2.83 5.82,9.47 7.88,12.18 1.19,1.56 2.05,2.84 1.91,2.84 -0.14,0 -3.67,-3.68 -7.85,-8.18 z m -13.05,4.83 c 0.2,-0.37 0.62,-0.51 0.92,-0.29 0.82,0.57 0.67,0.97 -0.37,0.97 -0.51,0 -0.75,-0.31 -0.55,-0.68 z m 21.86,-2.78 c -6.24,-13.34 -9.42,-24.64 -11.81,-41.94 -0.53,-3.86 -1.21,-8.45 -1.52,-10.21 -0.3,-1.77 -0.55,-7.36 -0.55,-12.44 0,-8.51 -0.11,-9.45 -1.43,-12.15 -2.7,-5.5 -2.73,-13.62 -0.1,-16.86 1.23,-1.51 1.62,-1.63 3.17,-1.02 1.06,0.42 2.04,1.47 2.48,2.66 1.06,2.88 0.43,12.08 -1.19,17.31 -1.22,3.96 -1.3,5.09 -0.97,13.02 0.21,4.77 0.66,10.48 1,12.68 0.34,2.2 1.02,6.56 1.5,9.68 0.49,3.12 1.3,7.63 1.81,10.02 1.13,5.34 6.35,23.66 7.94,27.83 1.37,3.62 1.11,4.59 -0.37,1.42 z m -27.49,0.79 c 0,-0.37 0.27,-0.67 0.6,-0.67 0.32,0 0.59,0.3 0.59,0.67 0,0.37 -0.27,0.67 -0.59,0.67 -0.33,0 -0.6,-0.3 -0.6,-0.67 z m -4.14,-1.34 c 0,-0.36 0.27,-0.66 0.59,-0.66 0.33,0 0.6,0.3 0.6,0.66 0,0.37 -0.27,0.67 -0.6,0.67 -0.32,0 -0.59,-0.3 -0.59,-0.67 z m 33.58,-4.49 c -2.3,-5.74 -3.61,-10.49 -4.53,-16.54 -1.06,-6.93 -1.92,-18.44 -1.88,-25.24 0.1,-7.62 1.44,-22.41 2.66,-28.17 0.46,-2.2 1.18,-7.07 1.59,-10.82 0.67,-6.03 0.64,-7.38 -0.25,-11.68 -1.16,-5.6 -1.24,-7.87 -0.37,-11.4 1.32,-5.35 6.25,-9.07 9.47,-7.13 2.9,1.75 3.75,8.83 1.78,14.69 -1.55,4.6 -4.74,9.27 -6.35,9.3 -1.13,0 -1.36,0.6 -1.97,4.86 -0.38,2.66 -1.04,6.94 -1.47,9.51 -1.08,6.44 -1.93,12.33 -2.72,19.03 -0.76,6.31 -0.46,22.59 0.56,31.11 0.66,5.46 4.3,22.63 5.42,25.56 0.34,0.87 0.51,1.7 0.38,1.85 -0.13,0.14 -1.17,-2.08 -2.32,-4.93 z m 26.47,4.49 c -0.21,-0.36 0.1,-0.66 0.59,-0.66 0.52,0 0.79,0.3 0.59,0.66 -0.2,0.37 -0.47,0.67 -0.59,0.67 -0.13,0 -0.39,-0.3 -0.59,-0.67 z m -15.36,-5.16 c -1.53,-7.59 -1.82,-20.27 -0.68,-29.55 1.55,-12.66 4.16,-26.72 5.79,-31.23 1.92,-5.35 2.71,-7.26 6.49,-15.84 4.35,-9.87 7.54,-15.66 5.33,-9.68 -0.61,1.65 -1.68,4.41 -2.38,6.14 -0.7,1.72 -1.27,3.3 -1.27,3.51 0,0.21 -0.5,1.65 -1.12,3.21 -3.5,8.84 -6.87,18.69 -7.58,22.19 -1.66,8.08 -2.03,10.16 -3.16,17.69 -1.31,8.75 -1.5,20.99 -0.5,31.4 0.36,3.71 0.53,6.88 0.39,7.04 -0.14,0.16 -0.73,-2.03 -1.31,-4.88 z m -5.05,3.83 c 0,-0.37 0.26,-0.67 0.59,-0.67 0.32,0 0.59,0.3 0.59,0.67 0,0.37 -0.27,0.67 -0.59,0.67 -0.33,0 -0.59,-0.3 -0.59,-0.67 z m -49.69,-1.34 c 0,-0.36 0.26,-0.66 0.59,-0.66 0.32,0 0.59,0.3 0.59,0.66 0,0.37 -0.27,0.67 -0.59,0.67 -0.33,0 -0.59,-0.3 -0.59,-0.67 z m 47.91,-4 c 0,-0.37 0.27,-0.67 0.59,-0.67 0.33,0 0.6,0.3 0.6,0.67 0,0.36 -0.27,0.66 -0.6,0.66 -0.32,0 -0.59,-0.3 -0.59,-0.66 z m 8.88,-0.67 c 0,-0.37 0.26,-0.67 0.59,-0.67 0.32,0 0.59,0.3 0.59,0.67 0,0.37 -0.27,0.67 -0.59,0.67 -0.33,0 -0.59,-0.3 -0.59,-0.67 z m -22.78,-1.34 c 0.2,-0.36 0.48,-0.66 0.63,-0.66 0.14,0 0.26,0.3 0.26,0.66 0,0.37 -0.28,0.67 -0.63,0.67 -0.34,0 -0.46,-0.3 -0.26,-0.67 z m 49.12,-2.82 c 0.64,-1 1.63,-2 2.21,-2.21 0.57,-0.22 0.93,-0.61 0.79,-0.86 -0.13,-0.24 0.8,-1.61 2.07,-3.02 1.26,-1.41 2.31,-2.32 2.32,-2 0,0.31 0.28,0.1 0.6,-0.56 0.78,-1.51 10.51,-9.73 16.97,-14.33 10.71,-7.62 18.49,-11.45 32.99,-16.24 12.6,-4.15 25.28,-7.02 15.97,-3.61 -2.6,0.95 -5.26,1.97 -5.91,2.26 -0.65,0.29 -2.78,1.05 -4.74,1.68 -6.74,2.18 -13.01,4.42 -14.2,5.07 -0.66,0.36 -1.79,0.7 -2.52,0.76 -0.72,0.1 -1.32,0.35 -1.32,0.64 0,0.29 -0.28,0.53 -0.62,0.53 -0.68,0 -10.03,5.05 -13.88,7.5 -6.11,3.89 -19.93,15.09 -28.96,23.48 -2.36,2.2 -2.71,2.38 -1.77,0.91 z m 10.92,1.2 c 0,-0.12 1.99,-1.76 4.42,-3.66 8.13,-6.34 19.04,-11.25 30.56,-13.75 7.15,-1.55 9.12,-1.01 2.88,0.78 -7.39,2.13 -13.58,4.25 -16.27,5.56 -2.99,1.47 -7.09,2.98 -7.11,2.62 0,-0.15 -0.41,0.11 -0.89,0.58 -0.92,0.89 -13.59,8.23 -13.59,7.87 z m -91.74,-6.61 c -5.39,-3 -13.25,-6.76 -17.45,-8.35 -4.2,-1.59 -8.17,-3.13 -8.82,-3.42 -0.65,-0.29 -2.38,-1.06 -3.85,-1.69 -1.46,-0.64 -3.19,-1.41 -3.84,-1.7 -0.65,-0.3 -2.45,-1.05 -4.01,-1.69 -4.69,-1.91 -2.81,-1.72 4.05,0.42 11.45,3.56 12.32,3.86 16.52,5.65 2.28,0.97 4.68,1.93 5.33,2.14 0.65,0.2 3.93,1.82 7.29,3.59 4.12,2.18 5.97,3.48 5.68,4.02 -0.28,0.51 -0.18,0.61 0.27,0.3 0.57,-0.4 8.94,5.29 8.94,6.08 0,0.29 0.82,0.72 -10.11,-5.35 z m 42.94,4.9 c -0.2,-0.37 -0.1,-0.67 0.26,-0.67 0.35,0 0.63,0.3 0.63,0.67 0,0.36 -0.12,0.66 -0.26,0.66 -0.15,0 -0.43,-0.3 -0.63,-0.66 z m 18.34,-2.67 c -0.2,-0.37 0.1,-0.67 0.59,-0.67 0.53,0 0.79,0.3 0.59,0.67 -0.2,0.36 -0.47,0.66 -0.59,0.66 -0.12,0 -0.39,-0.3 -0.59,-0.66 z m -32.83,-1.34 c 0,-0.37 0.26,-0.67 0.59,-0.67 0.32,0 0.59,0.3 0.59,0.67 0,0.37 -0.27,0.67 -0.59,0.67 -0.33,0 -0.59,-0.3 -0.59,-0.67 z m -0.89,-2.67 c -0.2,-0.37 -0.1,-0.67 0.23,-0.67 0.32,0 0.75,0.3 0.95,0.67 0.2,0.37 0.1,0.67 -0.22,0.67 -0.33,0 -0.76,-0.3 -0.96,-0.67 z m 16.27,-4.67 c 0,-0.37 0.26,-0.67 0.59,-0.67 0.32,0 0.59,0.3 0.59,0.67 0,0.36 -0.27,0.66 -0.59,0.66 -0.33,0 -0.59,-0.3 -0.59,-0.66 z m 44.71,-5.92 c 3.23,-6.41 15.29,-19.51 16.92,-18.38 0.38,0.27 0.5,0.17 0.28,-0.23 -0.82,-1.49 9.54,-7.67 17.49,-10.43 9.55,-3.31 10.72,-3.22 3.12,0.24 -15.34,6.98 -26.88,15.79 -36.33,27.75 -2.16,2.73 -2.41,2.91 -1.48,1.05 z m -63.35,-0.76 c 0.21,-0.37 0.49,-0.67 0.63,-0.67 0.14,0 0.26,0.3 0.26,0.67 0,0.37 -0.28,0.67 -0.63,0.67 -0.34,0 -0.46,-0.3 -0.26,-0.67 z m 32.83,-0.67 c 0,-0.36 0.29,-0.67 0.63,-0.67 0.35,0 0.46,0.31 0.26,0.67 -0.2,0.37 -0.48,0.67 -0.62,0.67 -0.15,0 -0.27,-0.3 -0.27,-0.67 z m -15.67,-4.67 c -0.2,-0.37 0,-0.67 0.56,-0.67 0.5,0 0.92,0.3 0.92,0.67 0,0.37 -0.25,0.67 -0.56,0.67 -0.31,0 -0.72,-0.3 -0.92,-0.67 z m 1.48,-10.02 c 0,-0.36 0.26,-0.66 0.59,-0.66 0.32,0 0.59,0.3 0.59,0.66 0,0.37 -0.27,0.67 -0.59,0.67 -0.33,0 -0.59,-0.3 -0.59,-0.67 z m -64.84,-12.68 c -3.04,-1.36 -4.58,-5.76 -3.1,-8.88 2.39,-5.02 11.68,-8.66 16.67,-6.52 4.08,1.75 5.23,6.9 2.39,10.7 -0.85,1.15 -1.69,1.93 -1.85,1.75 -0.17,-0.19 -0.95,0.23 -1.73,0.92 -0.81,0.72 -2.9,1.46 -4.8,1.71 -1.86,0.24 -4.04,0.54 -4.85,0.66 -0.82,0.12 -2.05,0 -2.73,-0.34 z m 12.29,-7.41 c 2.05,-1.49 2.86,-2.51 2.86,-3.6 0,-2.83 -5.16,-3.42 -6.7,-0.76 -0.54,0.92 -2.05,1.96 -3.62,2.48 -1.76,0.59 -2.7,1.28 -2.7,1.98 0,1.69 0.57,1.97 4.04,1.97 2.63,0 3.8,-0.4 6.12,-2.07 z m 16.19,4.24 c -1.16,-1.75 -3.4,-4.83 -4.98,-6.84 -5.06,-6.46 -5.96,-7.82 -5.53,-8.31 0.24,-0.27 0.14,-0.38 -0.22,-0.26 -0.36,0.12 -1.82,-1.26 -3.25,-3.06 -2.46,-3.11 -6.93,-8.1 -17.1,-19.11 l -4.44,-4.81 3.26,2.55 c 7.07,5.55 10.05,8.45 17.15,16.74 6.7,7.82 12.73,16.46 16.48,23.61 1.89,3.61 1.19,3.35 -1.37,-0.51 z m 210.86,-10.85 c 0,-0.37 0.27,-0.67 0.6,-0.67 0.32,0 0.59,0.3 0.59,0.67 0,0.37 -0.27,0.67 -0.59,0.67 -0.33,0 -0.6,-0.3 -0.6,-0.67 z m -229.21,-85.99 c -0.82,-1.39 -2.05,-5.06 -2.74,-8.16 -1.47,-6.54 -1.3,-13.21 0.53,-21.18 0.62,-2.67 1.03,-4.84 0.91,-4.84 -0.11,0 -0.73,0.36 -1.37,0.81 -1.81,1.28 -2.62,-0.19 -2.51,-4.57 0.24,-9.25 6.89,-24.86 18.14,-42.55 2.3,-3.62 4.59,-7.27 5.09,-8.11 0.5,-0.84 3.16,-3.9 5.91,-6.78 9.68,-10.13 14.95,-13.93 23.74,-17.13 8.79,-3.21 10.03,-2.81 1.98,0.64 -4.69,2 -10.73,5.78 -15.99,9.98 -4.25,3.4 -12.77,13.04 -16.48,18.64 -1.45,2.2 -3.15,4.75 -3.77,5.67 -0.61,0.92 -2.86,4.82 -4.99,8.68 -6.83,12.37 -10.83,22.38 -11.46,28.68 l -0.39,3.88 2.58,-1.35 c 2.05,-1.07 2.93,-2.11 4.25,-5 2.79,-6.11 9.74,-16.51 15.61,-23.38 l 5.57,-6.5 -5.74,8.68 c -3.16,4.77 -6.11,9.01 -6.55,9.42 -0.44,0.41 -0.8,0.94 -0.8,1.2 0,0.25 -2.09,3.82 -4.64,7.93 -5.99,9.63 -7.94,15.93 -8.26,26.7 -0.17,5.85 0,8.04 1.01,11.73 1.28,4.79 2.84,7.07 4.36,6.41 0.5,-0.22 1.05,-1 1.23,-1.75 0.19,-0.86 0.58,-1.17 1.03,-0.85 0.46,0.32 0.57,0.22 0.31,-0.26 -0.51,-0.93 3.53,-7.76 6.94,-11.72 3.87,-4.5 11.13,-9.25 19.95,-13.08 1.77,-0.76 3.75,-1.65 4.4,-1.96 0.65,-0.32 4.04,-1.82 7.52,-3.35 14.64,-6.37 23.96,-13.53 34.21,-26.25 2,-2.48 3.84,-4.36 4.1,-4.18 0.26,0.18 0.43,-0.2 0.39,-0.83 0,-0.65 0.27,-1.08 0.7,-0.98 0.43,0.1 0.66,-0.1 0.5,-0.34 -0.15,-0.28 1.31,-2.47 3.26,-4.85 4.71,-5.78 2.86,-1.84 -2.44,5.22 -4.29,5.68 -18.1,21.36 -20.95,23.77 -2.79,2.35 -8.97,5.98 -14.28,8.39 -2.6,1.18 -5.83,2.7 -7.18,3.38 -1.35,0.68 -3.21,1.44 -4.14,1.69 -0.93,0.25 -1.96,0.68 -2.28,0.95 -0.33,0.26 -2.07,1.1 -3.88,1.85 -8.61,3.58 -15.87,8.57 -19.48,13.41 -1.39,1.87 -2.81,3.2 -3.14,2.97 -0.34,-0.23 -0.42,-0.1 -0.19,0.34 0.23,0.41 -0.91,2.98 -2.53,5.69 -4.01,6.71 -5.63,7.36 -8.04,3.24 z m 2.84,-4.56 c 0.17,-0.69 0.49,-2.3 0.71,-3.59 1.4,-8.37 8.84,-26.61 15.32,-37.57 3.21,-5.42 14.15,-20.51 14.88,-20.51 0.18,0 -0.79,1.73 -2.14,3.84 -1.36,2.11 -3.14,4.96 -3.96,6.34 -0.82,1.38 -1.72,2.51 -2.01,2.51 -0.28,0 -0.45,0.22 -0.38,0.5 0.1,0.27 -1.53,3.28 -3.57,6.68 -2.04,3.41 -5.07,9.12 -6.74,12.69 -1.68,3.57 -3.29,6.68 -3.58,6.91 -0.3,0.22 -0.49,0.61 -0.44,0.85 0,0.25 -1.14,3.76 -2.65,7.8 -1.51,4.04 -3.14,8.82 -3.61,10.63 -0.48,1.8 -1.15,3.48 -1.51,3.73 -0.4,0.28 -0.52,0 -0.32,-0.81 z m 155.25,-15.6 c -0.41,-0.74 -0.94,-1.34 -1.19,-1.34 -0.74,0 -4.75,-5.26 -6.8,-8.92 -1.96,-3.5 -5.03,-11.85 -5.69,-15.45 -0.2,-1.1 0.77,0.55 2.17,3.68 3.57,7.99 7.32,15.18 9.77,18.69 3.13,4.49 3.24,4.67 2.84,4.67 -0.2,0 -0.69,-0.6 -1.1,-1.33 z m -26.32,-23.55 c -5.36,-12.17 -9.63,-35.63 -9.62,-52.85 0,-6.42 1.28,-20.08 1.95,-20.84 0.1,-0.1 0.16,6.81 0.18,15.33 0,8.51 0.35,18.03 0.74,21.15 1.6,12.77 4.39,26.42 7.28,35.68 0.91,2.91 1.57,5.39 1.48,5.49 -0.1,0.11 -1,-1.67 -2.01,-3.96 z m -18.5,-10.65 c 0,-0.21 -0.45,-2.88 -1,-5.95 -0.73,-4.06 -1,-8.78 -0.98,-17.27 0,-10.86 0.17,-12.22 1.85,-19.36 1.63,-6.86 5.9,-19.75 6.37,-19.22 0.1,0.12 -0.31,2.24 -0.92,4.71 -0.61,2.47 -0.85,4.5 -0.55,4.5 0.31,0 0.55,0.3 0.55,0.66 0,0.37 -0.35,0.67 -0.79,0.67 -1.55,0 -3.72,11.02 -4.61,23.47 -0.51,7.11 -0.52,11.9 0,18.57 0.35,4.94 0.53,9.12 0.38,9.29 -0.15,0.16 -0.27,0.13 -0.27,-0.1 z m 27.47,-12.37 c -4.39,-8.42 -8.15,-18.89 -10,-27.88 -0.83,-4.02 -2.28,-18.36 -1.91,-18.78 0.1,-0.11 0.51,1.67 0.92,3.95 0.41,2.29 0.98,5.21 1.27,6.49 0.29,1.29 0.98,4.44 1.53,7.01 1.28,6.01 5.28,19.08 7.34,24.04 1.67,4.01 3.54,9.24 3.38,9.43 -0.11,0.12 -1.24,-1.8 -2.53,-4.26 z m -90.47,-15.88 c 3.69,-3.86 6.72,-5.99 14.29,-10.04 3.85,-2.06 7.43,-3.99 7.96,-4.29 1.63,-0.96 13.36,-4.63 16.03,-5.02 2.8,-0.42 3.24,-0.63 -10.81,5.2 -8.83,3.66 -21.72,10.68 -26.56,14.46 -2.91,2.26 -3.25,2.15 -0.91,-0.31 z m 141.38,-1.66 c -0.98,-0.31 -3.33,-0.9 -5.22,-1.33 -1.9,-0.43 -3.34,-0.9 -3.22,-1.04 0.13,-0.14 4.08,0.1 8.77,0.47 18.96,1.63 33.78,-0.81 49.36,-8.13 5.38,-2.53 13.65,-7.72 16.33,-10.28 1,-0.94 2.12,-1.52 2.5,-1.27 0.38,0.24 0.5,0.2 0.26,-0.1 -0.23,-0.29 0.25,-1.43 1.07,-2.54 0.9,-1.21 1.35,-2.43 1.12,-3.07 -0.53,-1.54 -0.53,-1.49 0,-4.32 0.77,-4.14 -0.46,-7.35 -4.6,-12.01 -5.29,-5.97 -10.78,-10.07 -21.75,-16.28 -11.78,-6.65 -19.38,-10.26 -26.34,-12.52 -6.91,-2.25 -7.04,-2.33 -2.93,-1.96 5.23,0.47 9.31,1.76 17.2,5.44 4.18,1.95 17.7,9.46 20.86,11.59 14.36,9.66 19.91,16.53 19.59,24.27 -0.1,1.99 0.12,4.01 0.44,4.5 0.83,1.25 0.69,1.93 -0.94,4.39 -2.2,3.32 -9.44,9.27 -15.54,12.78 -9.63,5.52 -18.64,8.85 -29.89,11.02 -5.87,1.14 -23.8,1.39 -27.06,0.38 z m -84.29,-20.01 c 0,-0.37 0.26,-0.67 0.59,-0.67 0.32,0 0.59,0.3 0.59,0.67 0,0.36 -0.27,0.66 -0.59,0.66 -0.33,0 -0.59,-0.3 -0.59,-0.66 z m 106.77,-1.67 c -0.58,-0.21 -3.42,-0.9 -15.38,-3.72 -3.25,-0.76 -9.38,-1.94 -13.61,-2.61 l -7.69,-1.22 5.05,-0.1 c 6.61,-0.1 13.74,0.96 20.58,3.02 7.47,2.24 14.28,4.8 12.82,4.81 -0.65,0 -1.45,-0.1 -1.77,-0.21 z m -103.82,-7.68 c 0,-0.37 0.27,-0.67 0.59,-0.67 0.33,0 0.6,0.3 0.6,0.67 0,0.37 -0.27,0.67 -0.6,0.67 -0.32,0 -0.59,-0.3 -0.59,-0.67 z m -40.27,-0.28 c -0.14,-0.15 -2.51,-0.62 -5.28,-1.04 -6.7,-1.02 -15.55,-3.89 -23.9,-7.77 -5.29,-2.46 -14.81,-7.78 -15.04,-8.4 -0.11,-0.29 -0.48,-0.54 -0.82,-0.54 -0.35,0 -2.39,-1.25 -4.54,-2.77 -9.06,-6.44 -18.24,-15.72 -24.4,-24.68 -3.34,-4.87 -3.72,-5.19 -8.83,-7.58 -6.11,-2.86 -11.06,-6.8 -14.87,-11.86 -3.38,-4.47 -3.79,-6.6 -1.73,-8.92 1.25,-1.41 5.3,-4.26 6.59,-4.63 0.42,-0.13 2.85,-1.29 5.61,-2.68 2.72,-1.37 10.95,-1.62 14.65,-0.45 1.75,0.56 2.21,0.52 2.21,-0.16 0,-3.24 17.74,-6.34 34.23,-5.97 14.73,0.32 27.42,3.6 40.24,10.37 5.26,2.78 12.39,7.37 14.52,9.36 0.35,0.32 1.7,1.5 3,2.61 1.3,1.11 5.26,5.24 8.81,9.17 3.54,3.93 6.23,6.74 5.98,6.24 -0.25,-0.51 -0.66,-1.86 -0.92,-3.01 -0.25,-1.15 -0.85,-3.74 -1.32,-5.76 -1.21,-5.12 -1.51,-7.8 -1.94,-17.36 -0.48,-10.71 0.54,-15.01 1.2,-5.07 0.47,7.08 0.51,7.49 1.17,13.08 0.42,3.6 2.8,14.73 3.85,18.03 0.29,0.91 1.1,3.92 1.8,6.67 1.24,4.88 1.54,5.88 2.83,9.35 1.13,3.02 1.92,6.22 1.62,6.56 -0.16,0.18 -1.37,-2.35 -2.68,-5.62 -1.31,-3.27 -2.6,-6.4 -2.86,-6.95 -0.27,-0.55 -0.86,-2.47 -1.32,-4.27 -0.71,-2.75 -1.59,-4.01 -5.57,-8.01 -2.61,-2.61 -6.12,-5.94 -7.82,-7.41 -1.7,-1.48 -2.96,-3.06 -2.81,-3.54 0.15,-0.51 0,-0.68 -0.39,-0.42 -0.36,0.25 -0.82,0.16 -1.03,-0.2 -0.55,-0.97 -9.45,-7.14 -14.1,-9.78 -9.17,-5.22 -15.5,-7.68 -26.8,-10.46 -9.66,-2.38 -43.16,-0.93 -45.73,1.97 -0.38,0.43 0.47,1.8 2.46,3.97 1.68,1.82 3.05,3.17 3.05,3 0,-0.58 6.79,3.77 8.58,5.5 0.97,0.94 1.5,1.57 1.18,1.41 -0.33,-0.16 -4.26,-2.31 -8.74,-4.76 -11.18,-6.13 -13.93,-7.12 -19.67,-7.11 -5.1,0 -7.42,0.71 -13.2,4 -3.93,2.25 -6.01,4.19 -6.01,5.62 0,1.62 6.46,8.97 10.21,11.62 2.03,1.43 5.38,3.31 7.45,4.17 3.92,1.63 5.97,3.53 9.74,9.06 2.82,4.12 8.34,10.62 10.89,12.81 1.06,0.92 1.75,2 1.54,2.42 -0.21,0.42 -0.18,0.55 0.1,0.28 0.26,-0.26 1.96,0.75 3.79,2.25 3.92,3.21 11.2,8.58 11.63,8.58 0.16,0 1.29,0.69 2.51,1.55 2.84,2 14.54,7.78 20.24,10 7.64,2.99 24.69,6.35 33.13,6.53 1.79,0 3.92,0.32 4.73,0.61 0.89,0.32 -2.2,0.56 -7.74,0.6 -5.07,0 -9.33,-0.1 -9.46,-0.21 z m 64.26,-1 c -0.19,-0.35 -0.1,-0.81 0.22,-1.02 0.3,-0.22 0.71,-0.11 0.9,0.24 0.19,0.35 0.1,0.81 -0.21,1.02 -0.31,0.22 -0.72,0.11 -0.91,-0.24 z m 12.39,-0.1 c -0.2,-0.36 -0.1,-0.66 0.26,-0.66 0.35,0 0.63,0.3 0.63,0.66 0,0.37 -0.12,0.67 -0.26,0.67 -0.14,0 -0.43,-0.3 -0.63,-0.67 z m 76.61,-1.36 c -2.12,-0.67 -3.85,-1.25 -3.85,-1.3 0,-0.31 -18.4,-5.64 -22.77,-6.6 -3.74,-0.81 -18.23,-2.55 -26.92,-3.22 l -5.91,-0.45 4.14,-0.56 c 9.26,-1.26 30.43,1.44 41.41,5.27 7.09,2.47 18.51,7.21 19.17,7.95 0.47,0.52 -1.45,0.13 -5.27,-1.09 z m -80.15,-0.65 c 0.2,-0.37 0.62,-0.51 0.92,-0.29 0.82,0.57 0.67,0.97 -0.37,0.97 -0.51,0 -0.75,-0.31 -0.55,-0.68 z m -29.88,-0.66 c 0,-0.36 0.27,-0.66 0.59,-0.66 0.33,0 0.59,0.3 0.59,0.66 0,0.37 -0.26,0.67 -0.59,0.67 -0.32,0 -0.59,-0.3 -0.59,-0.67 z m 15.38,0 c 0,-0.36 0.27,-0.66 0.59,-0.66 0.33,0 0.59,0.3 0.59,0.66 0,0.37 -0.26,0.67 -0.59,0.67 -0.32,0 -0.59,-0.3 -0.59,-0.67 z m -13.01,-1 c 0,-0.55 0.26,-1 0.59,-1 0.32,0 0.59,0.45 0.59,1 0,0.55 -0.27,1 -0.59,1 -0.33,0 -0.59,-0.45 -0.59,-1 z m -25.44,-5.01 c 0,-0.36 0.27,-0.66 0.59,-0.66 0.33,0 0.59,0.3 0.59,0.66 0,0.37 -0.26,0.67 -0.59,0.67 -0.32,0 -0.59,-0.3 -0.59,-0.67 z m 46.14,0 c 0,-0.36 0.27,-0.66 0.59,-0.66 0.33,0 0.59,0.3 0.59,0.66 0,0.37 -0.26,0.67 -0.59,0.67 -0.32,0 -0.59,-0.3 -0.59,-0.67 z m -16.67,-1.79 c 0.42,-0.19 0.93,-0.17 1.13,0.1 0.2,0.22 -0.15,0.38 -0.78,0.35 -0.68,0 -0.83,-0.19 -0.35,-0.41 z m 6.32,-0.21 c 0.2,-0.37 0.48,-0.67 0.63,-0.67 0.14,0 0.26,0.3 0.26,0.67 0,0.37 -0.29,0.67 -0.63,0.67 -0.34,0 -0.46,-0.3 -0.26,-0.67 z m -23.24,-3.34 c -2.05,-1.47 -3.98,-2.67 -4.29,-2.67 -0.31,0 -0.57,-0.3 -0.57,-0.66 0,-0.37 -0.2,-0.61 -0.44,-0.53 -0.25,0.1 -3.11,-1.33 -6.36,-3.15 -3.26,-1.81 -6.22,-3.35 -6.58,-3.41 -0.37,-0.1 -1.57,-0.56 -2.66,-1.1 -6.44,-3.16 -11.84,-4.91 -21.82,-7.07 -1.79,-0.39 -4.85,-1.05 -6.8,-1.48 -1.95,-0.42 -4.88,-1.04 -6.51,-1.36 -1.62,-0.33 -4.02,-0.86 -5.32,-1.19 l -2.37,-0.59 2.37,-0.1 c 3.32,-0.1 15,1.61 22.27,3.26 6.6,1.49 17.98,5.63 24.14,8.77 2.09,1.07 4.35,1.86 5.02,1.76 0.66,-0.1 1.21,0.18 1.21,0.63 0,0.45 2,2.3 4.44,4.12 4.22,3.15 8.92,7.34 8.28,7.38 -0.16,0 -1.97,-1.18 -4.01,-2.64 z m 14.66,2.01 c 0,-0.37 0.27,-0.67 0.59,-0.67 0.33,0 0.59,0.3 0.59,0.67 0,0.36 -0.26,0.66 -0.59,0.66 -0.32,0 -0.59,-0.3 -0.59,-0.66 z m 15.38,-2.01 c 0,-0.36 0.27,-0.66 0.59,-0.66 0.33,0 0.59,0.3 0.59,0.66 0,0.37 -0.26,0.67 -0.59,0.67 -0.32,0 -0.59,-0.3 -0.59,-0.67 z m 91.69,-0.1 c -0.81,-0.37 -2.54,-0.93 -3.84,-1.23 -1.31,-0.31 -4.5,-1.17 -7.1,-1.92 -6.91,-1.99 -10.35,-2.62 -18.93,-3.47 -12.39,-1.24 -13.61,-1.82 -3.95,-1.9 12.05,-0.11 20.81,1.74 33.68,7.09 1.7,0.71 3.28,1.49 3.5,1.74 0.58,0.66 -1.67,0.45 -3.36,-0.31 z m -116.39,-2.63 c -1.38,-1.47 -2.51,-2.97 -2.51,-3.32 0,-0.35 -0.39,-0.64 -0.86,-0.64 -0.47,0 -1.07,-0.38 -1.33,-0.84 -0.6,-1.05 -6.07,-6.17 -9.94,-9.28 -3.57,-2.88 -23.51,-16.12 -28.21,-18.74 -6.42,-3.57 -10.84,-4.74 -17.43,-4.59 -7.06,0.16 -9.64,-0.76 -11.43,-4.07 -2.39,-4.43 -0.75,-7.68 3.56,-7.03 2.36,0.36 11.81,6.67 11.81,7.88 0,0.31 1,0.76 2.22,1.02 6.15,1.29 11.49,4 23.51,11.92 3.26,2.15 7.12,4.65 8.58,5.56 1.46,0.91 2.98,1.94 3.38,2.29 0.39,0.35 1,0.43 1.37,0.18 0.37,-0.26 0.78,0.1 0.95,0.81 0.16,0.71 1.27,1.86 2.47,2.58 2.38,1.41 10.18,9.9 14.24,15.48 1.4,1.93 2.45,3.5 2.34,3.49 -0.11,0 -1.33,-1.22 -2.72,-2.7 z m 11.69,-1.96 c 0,-0.37 0.26,-0.67 0.59,-0.67 0.32,0 0.59,0.3 0.59,0.67 0,0.37 -0.27,0.67 -0.59,0.67 -0.33,0 -0.59,-0.3 -0.59,-0.67 z m -11.24,-0.67 c 0,-0.36 0.28,-0.67 0.62,-0.67 0.35,0 0.47,0.31 0.27,0.67 -0.21,0.37 -0.49,0.67 -0.63,0.67 -0.14,0 -0.26,-0.3 -0.26,-0.67 z m 3.47,-2.55 c -2.21,-2.83 -2.25,-2.88 -9.49,-12.83 -5.55,-7.64 -12.51,-15.4 -15.12,-16.87 -0.9,-0.51 -3.56,-1.62 -5.9,-2.48 -5.05,-1.83 -7.86,-4.39 -7.86,-7.16 0,-2.5 0.97,-3.51 3.4,-3.51 2.99,0 4.95,1.47 9.09,6.81 2.08,2.67 5.82,7.12 8.32,9.88 4.93,5.44 11.13,13.36 11.13,14.21 0,0.3 0.56,1.2 1.24,2.01 0.68,0.81 2.45,3.58 3.93,6.15 1.48,2.57 2.95,5.05 3.27,5.51 1.33,1.92 -0.17,0.63 -2.01,-1.72 z m 11.61,0.55 c -0.2,-0.37 -0.1,-0.67 0.23,-0.67 0.32,0 0.75,0.3 0.96,0.67 0.2,0.37 0.1,0.67 -0.23,0.67 -0.33,0 -0.76,-0.3 -0.96,-0.67 z m 10,-1.94 c 0.91,-5.72 8.3,-19.71 15.91,-30.11 6.71,-9.15 16.54,-19.91 26.19,-28.63 2.71,-2.45 7.4,-5.46 7.92,-5.1 0.36,0.25 0.57,0.1 0.48,-0.37 -0.14,-0.72 6.55,-5.62 6.99,-5.11 0.1,0.11 -1.83,1.84 -4.28,3.85 -2.46,2.01 -4.77,3.96 -5.15,4.34 -0.37,0.37 -2.41,2.17 -4.52,4 -2.12,1.83 -3.98,3.49 -4.14,3.68 -0.17,0.2 -2.3,2.28 -4.74,4.62 -4.64,4.44 -9.79,10.3 -14.05,15.97 -4.69,6.24 -9.61,13.41 -9.61,14.01 0,0.33 -0.36,0.94 -0.81,1.36 -0.95,0.88 -5.91,9.92 -8.66,15.76 -1.62,3.43 -1.84,3.68 -1.53,1.73 z m -4.62,-4.4 c 0.39,-7.19 2.02,-16.52 3.83,-22.03 3.38,-10.31 10.38,-23.44 15.28,-28.67 1.2,-1.28 1.84,-2.61 1.84,-3.83 0,-2.27 1.69,-7.23 2.46,-7.23 0.31,0 0.41,-0.27 0.23,-0.61 -0.18,-0.34 0.36,-1.54 1.2,-2.67 1.93,-2.58 4.2,-2.79 4.73,-0.42 0.63,2.85 -2.2,8.49 -7.12,14.18 -9.26,10.69 -16.25,25 -18.91,38.72 -1.08,5.57 -1.13,6.44 -0.38,5.91 0.3,-0.21 0.72,-0.1 0.92,0.29 0.21,0.38 -0.13,0.68 -0.75,0.68 -0.92,0 -1.35,1.05 -2.39,5.84 l -1.27,5.85 z m 12.34,3.29 c 0.96,-1.44 2.22,-3.11 2.8,-3.69 0.58,-0.59 0.93,-1.21 0.78,-1.39 -0.38,-0.42 10.58,-12.51 14.05,-15.49 1.54,-1.32 2.81,-2.21 2.81,-1.98 0,0.24 0.46,-0.17 1.03,-0.91 1.37,-1.77 12.57,-9.5 12.57,-8.67 0,0.13 -1.26,1.25 -2.81,2.5 -1.54,1.24 -4.15,3.47 -5.79,4.95 -1.64,1.48 -3.73,3.29 -4.66,4.03 -0.92,0.73 -2.25,1.94 -2.94,2.67 -0.7,0.73 -2.86,2.84 -4.8,4.67 -1.95,1.84 -6.07,6.18 -9.16,9.64 -3.09,3.47 -4.84,5.12 -3.88,3.67 z m 5.06,1.71 c 0,-0.36 0.28,-0.66 0.62,-0.66 0.35,0 0.47,0.3 0.26,0.66 -0.2,0.37 -0.48,0.67 -0.62,0.67 -0.15,0 -0.26,-0.3 -0.26,-0.67 z m -9.15,-1.95 c -0.18,-0.34 -0.1,-0.81 0.26,-1.04 0.34,-0.23 0.61,0.1 0.61,0.62 0,1.17 -0.36,1.34 -0.87,0.42 z m -18.38,-3.15 c -8.3,-21.86 -13.78,-43.75 -13.93,-55.65 -0.1,-7.77 -0.22,-8 -4.84,-9.35 -3.96,-1.17 -5.76,-2.25 -5.76,-3.47 0,-0.35 0.74,-1.47 1.65,-2.49 1.33,-1.51 2.39,-1.95 5.54,-2.33 4.58,-0.56 7.81,0.6 8.84,3.17 0.87,2.14 -0.65,4.87 -3.05,5.47 -0.95,0.23 -1.88,0.71 -2.08,1.06 -0.31,0.58 1.35,11.32 3.66,23.63 1.09,5.81 3.63,15.29 6.43,24.03 3.94,12.29 6.45,23.61 3.54,15.93 z m -10.59,-67.78 c 0.27,-1 0.1,-1.72 -0.6,-2.28 -1.44,-1.19 -6.28,-1.81 -8.02,-1.03 -1.47,0.66 -1.46,0.67 0.34,0.71 1.06,0 2.8,0.88 4.14,2.03 2.79,2.38 3.6,2.49 4.14,0.57 z m 12.48,63.75 c -1.55,-5.37 -2.7,-10.65 -3.99,-18.24 -0.4,-2.39 -0.78,-10.28 -0.84,-17.53 -0.1,-7.26 -0.29,-13.4 -0.5,-13.64 -0.64,-0.72 -0.43,-11.88 0.27,-14.14 0.89,-2.89 2.42,-3.74 4.03,-2.25 2.1,1.95 1.84,8.29 -0.59,14.51 -1.26,3.22 -1.8,8.66 -1.76,17.48 0.1,10.82 1.06,19.45 3.58,30.68 0.96,4.31 1.65,7.95 1.53,8.09 -0.12,0.14 -0.9,-2.09 -1.73,-4.96 z m 36.05,3.9 c -0.21,-0.38 -0.1,-0.88 0.26,-1.13 0.91,-0.63 1.5,0.24 0.74,1.09 -0.42,0.48 -0.75,0.49 -1,0 z m 43.6,-2.36 c -2.98,-0.41 -5.65,-1 -5.91,-1.31 -0.69,-0.8 10.29,0.25 13.12,1.26 l 2.37,0.84 h -2.07 c -1.14,0 -4.52,-0.36 -7.51,-0.77 z m -55.49,-5.76 c -0.2,-0.37 0.1,-0.67 0.59,-0.67 0.53,0 0.79,0.3 0.59,0.67 -0.2,0.37 -0.47,0.67 -0.59,0.67 -0.12,0 -0.39,-0.3 -0.59,-0.67 z m -38.75,-1.33 c 0,-0.37 0.28,-0.67 0.63,-0.67 0.34,0 0.46,0.3 0.26,0.67 -0.2,0.36 -0.48,0.66 -0.63,0.66 -0.14,0 -0.26,-0.3 -0.26,-0.66 z m 29.58,-4.68 c 0,-0.36 0.28,-0.66 0.63,-0.66 0.34,0 0.46,0.3 0.26,0.66 -0.2,0.37 -0.49,0.67 -0.63,0.67 -0.14,0 -0.26,-0.3 -0.26,-0.67 z m 19.41,-5.13 c 0.43,-0.19 0.94,-0.17 1.13,0.1 0.2,0.22 -0.15,0.38 -0.77,0.35 -0.69,0 -0.83,-0.19 -0.36,-0.41 z m -12.31,-1.54 c 0,-0.37 0.28,-0.67 0.62,-0.67 0.35,0 0.47,0.3 0.27,0.67 -0.21,0.36 -0.49,0.66 -0.63,0.66 -0.14,0 -0.26,-0.3 -0.26,-0.66 z m -15.81,-4.68 c 0.1,-0.73 0.27,-1.33 0.49,-1.33 0.57,0 1.11,1.79 0.69,2.27 -0.72,0.8 -1.27,0.36 -1.18,-0.94 z m 17.58,-2 c 0,-0.37 0.27,-0.67 0.59,-0.67 0.33,0 0.6,0.3 0.6,0.67 0,0.37 -0.27,0.67 -0.6,0.67 -0.32,0 -0.59,-0.3 -0.59,-0.67 z m -132.8,-6.1 c -2.28,-0.71 -6.14,-1.76 -8.58,-2.33 -2.44,-0.57 -5.63,-1.32 -7.1,-1.67 -6.01,-1.44 -15.8,-3.24 -17.63,-3.24 -1.27,0 -1.82,-0.27 -1.55,-0.75 0.81,-1.49 16.23,0.55 25.84,3.41 1.22,0.37 3.17,0.94 4.32,1.27 2.67,0.77 8.66,3.43 9.4,4.17 0.77,0.77 0.18,0.67 -4.7,-0.86 z m 99.97,-6.58 c -0.2,-0.37 0.1,-0.67 0.59,-0.67 0.53,0 0.8,0.3 0.59,0.67 -0.2,0.36 -0.46,0.66 -0.59,0.66 -0.12,0 -0.39,-0.3 -0.59,-0.66 z m 8.88,-1.34 c -0.21,-0.37 0.1,-0.67 0.59,-0.67 0.52,0 0.79,0.3 0.59,0.67 -0.2,0.37 -0.47,0.67 -0.59,0.67 -0.13,0 -0.39,-0.3 -0.59,-0.67 z m 7.98,-4.67 c 0,-0.37 0.27,-0.67 0.59,-0.67 0.33,0 0.59,0.3 0.59,0.67 0,0.36 -0.26,0.66 -0.59,0.66 -0.32,0 -0.59,-0.3 -0.59,-0.66 z m -61.12,-7.82 c -1.85,-9.84 -2.73,-15.12 -3.05,-18.2 -0.21,-2.01 -0.67,-4.04 -1.01,-4.51 -0.34,-0.47 -0.41,-0.85 -0.14,-0.85 0.26,0 0,-0.38 -0.46,-0.84 -1.05,-0.92 -17.79,-25.87 -17.37,-25.87 0.14,0 4.13,5.39 8.86,11.97 4.73,6.58 8.87,12.16 9.2,12.39 0.4,0.28 0.61,-1.35 0.61,-4.67 0,-4.94 -0.1,-5.25 -2.76,-9.89 -5.17,-8.98 -10.31,-18.8 -12.29,-23.48 -1.94,-4.6 -2.81,-8.8 -4.75,-23.04 -0.53,-3.85 -1.2,-8.21 -1.49,-9.68 -0.29,-1.47 -0.97,-4.92 -1.51,-7.67 -0.95,-4.89 -4.1,-15.91 -4.76,-16.65 -0.41,-0.46 0.24,7.25 0.95,11.3 0.29,1.66 0.69,5.26 0.89,8.02 0.19,2.75 0.63,6.61 0.97,8.58 0.45,2.64 0.43,3.78 -0.1,4.34 -0.51,0.57 -0.89,0.45 -1.51,-0.5 -0.86,-1.31 -3.57,-10.39 -3.36,-11.26 0.1,-0.27 -0.14,-0.5 -0.47,-0.5 -0.32,0 -0.59,-0.45 -0.59,-1.01 0,-1.13 -5.31,-12.73 -7.47,-16.33 -1.69,-2.8 -1.7,-2.56 -0.3,5.78 0.61,3.61 1.44,8.81 1.84,11.56 0.41,2.76 1.11,7.37 1.56,10.26 1.11,7.07 1.1,12.44 0,12.44 -0.47,0 -2.88,-1.64 -5.37,-3.66 -6.55,-5.3 -21.03,-13.2 -22.06,-12.04 -0.14,0.16 1.05,1.83 2.63,3.72 3.16,3.78 9.78,9.25 15.3,12.65 7.91,4.86 13.68,10.63 22.76,22.73 2.32,3.09 0.99,1.86 -4.74,-4.38 -7.91,-8.64 -11.07,-11.24 -23.54,-19.34 -2.71,-1.77 -5.8,-3.3 -6.85,-3.4 -2.73,-0.28 -7.46,-2.8 -13.95,-7.44 -12.03,-8.58 -22.28,-13.29 -32.47,-14.93 -4.83,-0.77 -12.19,-0.55 -14.56,0.44 -0.65,0.27 -1.01,0.28 -0.8,0 0.93,-1.17 7.18,-2.38 12.33,-2.38 10.92,0 22.23,4.54 34.81,13.98 8.23,6.16 14.18,10.04 15.42,10.04 0.32,0 -2.07,-2.95 -5.31,-6.56 -3.24,-3.61 -5.71,-6.76 -5.49,-7.01 0.22,-0.25 0.1,-0.45 -0.29,-0.45 -0.37,0 -0.69,-0.49 -0.69,-1.08 0,-0.88 0.41,-0.99 2.22,-0.61 3.58,0.75 11.4,4.46 10.99,5.22 -0.21,0.38 -0.1,0.48 0.29,0.21 0.93,-0.64 12.28,5.65 13.72,7.61 0.16,0.22 1.33,1.11 2.59,1.98 l 2.3,1.58 -0.41,-3.95 c -0.23,-2.18 -0.81,-6.36 -1.28,-9.29 -0.48,-2.94 -1.16,-7.15 -1.5,-9.35 -0.35,-2.2 -1.19,-6.86 -1.87,-10.35 -1.51,-7.79 -1.66,-11.68 -0.45,-11.68 1.41,0 5.05,6.06 9.32,15.54 2.66,5.9 4.08,8.43 4.2,7.52 0.11,-0.76 -0.4,-5.36 -1.12,-10.22 -1.75,-11.71 -2.01,-15.24 -1.17,-15.82 0.46,-0.33 0.1,-1.69 -1.28,-4.42 -5.97,-12.1 -9.09,-23.67 -10.55,-39.03 -0.62,-6.65 -0.59,-8.94 0.28,-16.69 1.27,-11.5 2.5,-16.98 5.08,-22.68 0.65,-1.43 1.18,-3.04 1.18,-3.56 0,-1.1 -2.85,-1.64 -9.27,-1.76 -3.51,-0.1 -4.35,0.13 -4.86,1.12 -0.4,0.78 -0.63,0.88 -0.64,0.3 0,-1.02 -0.77,-0.89 -7.41,1.34 -3.65,1.22 -4.61,1.92 -8.02,5.82 -7.16,8.17 -9.24,17.57 -7.7,34.8 0.95,10.66 4.3,25.56 7.72,34.39 0.57,1.46 1.24,3.42 1.48,4.33 0.95,3.53 16.08,35.95 20.22,43.31 1.77,3.14 1.87,3.51 0.63,2.21 -2.53,-2.64 -7.82,-11.48 -11.24,-18.81 -6.56,-14.03 -9.84,-21.59 -9.57,-22.08 0.15,-0.28 0.1,-0.61 -0.19,-0.73 -1.18,-0.57 -7.81,-20.69 -7.82,-23.71 0,-0.8 -0.34,-1.85 -0.75,-2.34 -0.4,-0.48 -0.79,-1.63 -0.86,-2.55 -0.1,-0.92 -0.25,-2.72 -0.42,-4 -2.67,-20.33 -2.25,-29.16 1.84,-38.67 0.85,-1.99 2.48,-4.78 3.61,-6.2 1.14,-1.41 1.96,-2.67 1.83,-2.8 -4.79,-4.69 -18.58,-8.87 -20.53,-6.22 -0.96,1.31 1.26,9.75 5.05,19.17 1.54,3.83 4.9,13.41 4.9,13.99 0,0.65 -1.64,-2.4 -3.93,-7.31 -3.62,-7.77 -6.43,-15.26 -7.58,-20.2 -1.15,-4.97 -1.73,-5.37 -4.52,-3.12 -0.94,0.75 -1.72,1.13 -1.72,0.83 0,-0.3 -2.01,2.91 -4.47,7.13 -2.45,4.22 -5.59,8.91 -6.96,10.41 l -2.5,2.74 2.74,4.07 c 3.32,4.95 5.26,7.48 11.31,14.77 3.1,3.73 4.46,5.84 4.07,6.28 -1.02,1.15 -9.67,-9.03 -18.8,-22.13 l -1.09,-1.55 -2.99,1.33 c -1.65,0.73 -5.18,1.69 -7.84,2.13 -2.66,0.44 -4.98,1.07 -5.16,1.4 -0.18,0.33 -0.56,0.44 -0.84,0.25 -0.65,-0.45 -0.27,4.32 0.39,4.97 0.27,0.27 2.16,1.18 4.19,2.01 2.02,0.84 3.54,1.78 3.37,2.1 -0.18,0.32 0,0.43 0.47,0.24 0.81,-0.35 10.51,6.27 15.58,10.64 3.57,3.08 2.91,3.06 -1.72,0 -5.29,-3.54 -19.31,-11.57 -20.21,-11.57 -0.79,0 -0.68,1.67 0.29,4.34 1.4,3.88 5.82,13.82 7.57,17.03 l 2,3.67 -1.9,-2.34 c -2.75,-3.39 -3.69,-5.17 -3.19,-6.08 0.26,-0.48 0.19,-0.63 -0.18,-0.37 -1.09,0.76 -4.59,-6.08 -6.66,-13.05 l -1.33,-4.48 -2.73,-0.46 c -2.62,-0.44 -5.54,0 -12.39,1.84 -3.72,1 -4.56,0.59 -6.46,-3.17 -1.79,-3.52 -1.95,-12.79 -0.26,-14.52 3.6,-3.67 8.38,3.32 8.38,12.26 0,2.42 0.14,2.73 1.04,2.28 0.56,-0.29 3.36,-0.65 6.21,-0.8 l 5.17,-0.29 v -2.16 c 0,-3.56 1.55,-4.57 9.37,-6.11 4.28,-0.84 8.38,-2.42 8.38,-3.23 0,-1.15 -6.18,-11.73 -6.85,-11.73 -4.36,0 -13.41,-14.64 -11.52,-18.62 0.81,-1.72 2.12,-1.78 4.57,-0.24 2.92,1.84 4.77,4.88 8.11,13.34 3.09,7.84 7.02,15.53 7.93,15.53 0.98,0 4.84,-5.18 7.96,-10.68 3.44,-6.06 6.71,-9.85 9.7,-11.25 l 1.84,-0.86 -0.3,-4.28 c -0.17,-2.35 0,-6.1 0.4,-8.34 0.7,-4.02 0.69,-4.1 -0.87,-5.74 -1.54,-1.6 -1.58,-1.86 -1.34,-7.49 0.28,-6.81 1.77,-10.96 4.05,-11.34 3.3,-0.55 3.71,4.07 1.5,16.7 -1.71,9.76 -2.26,16 -1.59,18.05 0.44,1.36 0.9,1.5 5.16,1.57 5.52,0.1 8.41,1.25 13.75,5.49 l 3.75,2.98 1.57,-1.29 c 4.26,-3.49 15.83,-7.07 20.8,-6.45 4.57,0.57 10.13,1.83 10.41,2.35 0.17,0.3 0.89,0.55 1.61,0.55 1.92,0 7.23,4.29 11.94,9.65 2.94,3.35 4.82,6.26 6.49,10.05 l 2.35,5.34 0.68,-7.34 c 1,-10.7 0.74,-20.61 -0.64,-24.71 -1.52,-4.54 -4.41,-9.59 -6.9,-12.05 -4.45,-4.41 -14.15,-8.28 -18.45,-7.37 -2.3,0.49 -5.72,4.42 -5.72,6.58 0,2.79 -1.8,5.81 -5.12,8.6 -1.9,1.6 -3.64,3.2 -3.86,3.57 -0.22,0.37 -0.82,1.28 -1.33,2.01 -0.9,1.3 -0.91,1.29 -0.44,-0.26 0.27,-0.88 2.14,-3.45 4.16,-5.71 2.97,-3.32 3.84,-4.78 4.5,-7.62 1.89,-8.07 5.82,-10.74 13.29,-9.02 9.01,2.08 16.42,8.05 20,16.12 2.86,6.47 3.34,10.28 2.8,22.18 -0.26,5.69 -0.53,12.45 -0.62,15.02 -0.1,2.57 -0.17,5.37 -0.2,6.22 0,1.08 -0.35,1.49 -1.04,1.34 -0.63,-0.14 -1.81,-2.47 -3.21,-6.39 -1.22,-3.4 -2.11,-6.18 -1.98,-6.18 0.14,0 -0.13,-0.52 -0.59,-1.17 -0.47,-0.64 -1.9,-2.69 -3.18,-4.55 -3.84,-5.58 -12.41,-12.97 -15.02,-12.97 -0.93,0 -1.58,1.51 -2.75,6.34 -5.44,22.48 -4.98,40.12 1.62,61.76 2.51,8.24 5.95,17.64 7.38,20.15 2.31,4.07 6.26,18.09 7.76,27.58 1.53,9.62 2.56,16.63 2.94,20.03 1.51,13.49 5.03,22.53 14.37,36.95 2.2,3.39 2.22,3.35 2.83,-5.57 0.2,-2.94 0.6,-6.39 0.88,-7.68 1.88,-8.53 2.68,-11.48 4.14,-15.12 2.19,-5.46 5.37,-10.3 6.49,-9.85 0.47,0.19 0.68,0.13 0.44,-0.13 -0.23,-0.26 -0.12,-0.88 0.24,-1.37 0.98,-1.33 4.53,-1.09 6.43,0.43 1.56,1.26 1.77,1.27 3.92,0.26 1.56,-0.73 3.18,-0.95 5.14,-0.69 3.68,0.49 9.52,3.46 8.94,4.53 -0.27,0.49 -0.18,0.61 0.25,0.31 0.91,-0.64 5.93,3.2 11.25,8.62 8.87,9.03 13.94,16.98 20.4,32.04 5.24,12.21 5.09,12.78 -0.5,2 -11.98,-23.11 -21.35,-34.84 -34.06,-42.66 -5.47,-3.37 -8.42,-3.69 -11.64,-1.3 l -2.51,1.87 v 9.17 c 0,7.71 1.66,27.31 2.59,30.66 0.46,1.62 1.02,6.9 0.7,6.54 -0.6,-0.68 -3.4,-13.5 -4.18,-19.18 -0.7,-5.11 -0.75,-14.39 -0.13,-26.4 0.11,-2.32 -0.1,-2.71 -1.88,-3.81 -2.28,-1.39 -3.08,-1.11 -5.85,2.01 -1.71,1.93 -5.05,8.99 -6.16,13.03 -3.8,13.76 -4.46,33.29 -1.93,57.01 0.52,4.9 0.83,9.04 0.69,9.2 -0.15,0.16 -0.42,-0.54 -0.61,-1.56 z m 9.49,-46.59 c -1.11,-6.57 -1.19,-16.02 -0.17,-21.68 0.99,-5.49 2.63,-10.33 2.68,-7.9 0,0.62 -0.25,2.59 -0.59,4.37 -0.34,1.78 -0.81,8.78 -1.04,15.56 -0.31,8.71 -0.56,11.53 -0.88,9.65 z m -162.13,-13.13 c -1.91,-1.5 -5.11,-4.56 -7.13,-6.81 -4.22,-4.72 -9.51,-13.38 -8.87,-14.54 0.24,-0.45 0.17,-0.6 -0.17,-0.37 -0.91,0.64 -3.52,-6.52 -4.96,-13.56 -1,-4.92 -1.01,-15.49 0,-20.03 2.82,-12.84 9.43,-20.54 20.02,-23.34 1.71,-0.45 3.11,-0.92 3.11,-1.03 0,-0.77 -8.88,-3.1 -13.02,-3.42 -7.17,-0.56 -10.43,0.92 -15.56,7.06 -5.6,6.7 -7.39,12.89 -5.63,19.51 0.95,3.6 0,4.58 -2.42,2.59 -5.06,-4.06 -6.49,-9.78 -4.18,-16.75 3.64,-10.98 11.07,-19.36 21.37,-24.09 2.3,-1.05 4.48,-1.72 4.86,-1.48 0.37,0.24 0.5,0.22 0.29,0 -0.21,-0.27 -0.11,-1.6 0.22,-2.95 1.58,-6.48 5.66,-9.15 13.77,-9.01 6.21,0.11 12.24,2.08 19.02,6.23 7.36,4.5 14.52,10.03 8.64,6.67 -1.22,-0.7 -3.82,-2.08 -5.77,-3.06 -1.95,-0.99 -5.01,-2.53 -6.8,-3.44 -6.78,-3.43 -8.35,-3.83 -15.13,-3.84 -6.3,0 -6.64,0.1 -8.77,1.89 -1.22,1.05 -2.3,2.25 -2.4,2.68 -1.33,5.38 -2.2,6.94 -4.04,7.28 -5.25,0.97 -14.28,7.61 -18.1,13.32 -5.82,8.71 -7.47,16.24 -4.66,21.22 l 1.31,2.33 0.17,-2 c 0.84,-9.91 2.74,-14.72 7.99,-20.15 3.97,-4.11 6.86,-5.54 12.14,-5.98 5.84,-0.5 10.27,0.46 16.24,3.5 6.37,3.25 12.98,4.25 16.95,2.56 1.5,-0.64 3.91,-2.07 5.35,-3.18 1.44,-1.1 2.97,-2.01 3.4,-2.01 0.43,0 0.66,-0.14 0.5,-0.32 -0.16,-0.18 0.8,-1.71 2.12,-3.4 6.51,-8.27 8.61,-10.32 12.95,-12.68 4.26,-2.3 4.77,-2.42 12.34,-2.74 l 7.91,-0.33 -2.48,-2.25 c -1.66,-1.49 -2.29,-2.47 -1.9,-2.91 0.4,-0.44 1.55,0.46 3.46,2.7 2,2.36 3.88,3.8 6.26,4.8 3.69,1.55 4.48,2.37 1.58,1.66 -1,-0.25 -4.39,-0.84 -7.54,-1.31 -5.58,-0.83 -5.79,-0.81 -8.58,0.74 -6.28,3.47 -13.14,11.09 -16.11,17.9 -1.91,4.37 -3.04,9.81 -4.18,20.04 -0.57,5.07 -2.1,11.4 -3.56,14.71 -1.43,3.24 -4.31,7.28 -4.8,6.73 -0.13,-0.15 -0.69,0.23 -1.23,0.85 -0.95,1.06 -3.78,2.25 -7.36,3.09 -2.84,0.66 -3.97,2.57 -3.97,6.67 0,5.01 -2.23,10.47 -6.06,14.86 -2.86,3.27 -3.04,3.69 -3,6.77 0,1.8 0.49,4.81 1.04,6.67 1.65,5.59 0.57,6.05 -4.62,1.99 z m 1.97,-5.08 c -1.13,-4.97 -0.42,-7.64 3.27,-12.16 4.46,-5.48 5.89,-9.13 5.72,-14.6 0,-1.23 0.32,-3.09 0.8,-4.13 0.89,-1.93 1.06,-2.04 5.61,-3.31 4.08,-1.15 6.21,-2.45 8.21,-5.03 3.46,-4.44 4.8,-8.64 6.29,-19.68 2.13,-15.77 3.13,-19.36 6.99,-25.03 2.64,-3.88 5.64,-6.88 8.68,-8.67 1.46,-0.87 3.19,-2.03 3.84,-2.6 1.11,-0.96 1.04,-1 -1.18,-0.64 -1.3,0.2 -4.17,1.29 -6.37,2.4 -3.26,1.66 -5,3.21 -9.46,8.46 -6.77,7.97 -8.65,9.69 -13.25,12.09 -4,2.09 -8.99,2.63 -12.62,1.36 -3.35,-1.16 -6.94,-0.84 -12.01,1.1 -7.93,3.03 -12.72,9.18 -15.47,19.87 -1.29,5 -1.19,15.45 0.21,21.52 2.76,12 10.62,25.14 18.63,31.18 1.27,0.95 2.43,1.6 2.58,1.43 0.15,-0.16 -0.1,-1.76 -0.47,-3.56 z m -6.16,-16.65 c -0.32,-0.95 -0.25,-1.03 0.34,-0.37 0.4,0.45 0.58,0.99 0.4,1.19 -0.18,0.21 -0.51,-0.16 -0.74,-0.82 z m -1.54,-4.03 c -1.84,-6.89 -1.3,-16.53 1.32,-23.42 4.34,-11.39 7.11,-16.63 11.69,-22.15 l 3.05,-3.67 -3.31,5.82 c -4.23,7.45 -10.02,21.04 -11.21,26.32 -1,4.47 -1.2,13.12 -0.38,17.1 0.29,1.37 0.29,2.5 0,2.5 -0.28,0 -0.81,-1.13 -1.18,-2.5 z m 86.39,-25.57 c -2.1,-1.46 -13.35,-7.31 -14.07,-7.31 -0.44,0 -0.6,-0.34 -0.36,-0.78 0.23,-0.42 0.17,-0.59 -0.14,-0.37 -0.31,0.21 -2.55,-0.38 -4.97,-1.31 -6.02,-2.32 -7.46,-2.55 -15.76,-2.55 -7.59,0 -8.05,-0.34 -2.29,-1.67 7.51,-1.74 17.75,0.7 27.83,6.65 4.8,2.83 12.11,8.02 11.24,7.98 -0.32,0 -0.99,-0.3 -1.48,-0.64 z m -25.14,-1.39 c -2.3,-0.82 -6.96,-1.8 -13.6,-2.86 -4.56,-0.72 -5.07,-0.92 -3.55,-1.4 3.62,-1.14 16.25,1.84 18.9,4.46 0.65,0.65 0.59,0.64 -1.75,-0.2 z m 42.75,-32.77 c -6.58,-16.21 -8.65,-40.08 -4.88,-56.27 0.96,-4.11 4.42,-13.25 4.85,-12.77 0.13,0.14 -0.41,2.62 -1.2,5.51 -2.14,7.85 -2.72,11.19 -3.32,19.27 -0.93,12.42 0.75,26.67 4.96,42.04 0.8,2.92 1.36,5.42 1.24,5.55 -0.11,0.13 -0.86,-1.37 -1.65,-3.33 z m -100.13,-7.2 c -0.97,-0.28 -3.29,-0.55 -5.14,-0.59 -1.85,0 -3.53,-0.38 -3.73,-0.75 -0.65,-1.19 8.02,-0.67 11.24,0.67 2.54,1.06 2.7,1.23 1.18,1.2 -0.97,0 -2.57,-0.25 -3.55,-0.53 z m 74.46,-6.54 c 0.16,-0.3 -1.18,-2.18 -2.99,-4.18 -3.21,-3.55 -9.06,-12.26 -9.06,-13.47 0,-0.34 -0.4,-1.06 -0.89,-1.61 -0.48,-0.55 -0.87,-1.36 -0.86,-1.79 0,-0.43 0.68,0.11 1.5,1.22 2.86,3.87 10.31,14.92 10.31,15.29 0,0.21 1,1.42 2.22,2.7 2.05,2.16 2.12,2.33 0.85,2.35 -0.75,0 -1.24,-0.22 -1.08,-0.51 z m -2.07,-8.65 c -3.23,-3.94 -6.56,-9.11 -7.84,-12.19 -0.54,-1.28 -0.64,-1.77 -0.23,-1.08 0.42,0.68 1.74,2.48 2.96,4 1.21,1.52 2.2,3 2.21,3.29 0,0.29 0.51,1.12 1.11,1.85 1.43,1.73 4.97,7.3 4.65,7.3 -0.14,0 -1.43,-1.43 -2.86,-3.17 z m 29.42,-1.42 c -1.93,-9.54 -0.98,-25.37 2.08,-34.76 1.66,-5.12 4.07,-10.94 4.38,-10.59 0.14,0.16 -0.41,2.67 -1.24,5.59 -4.08,14.45 -5.6,27.18 -4.5,37.63 0.37,3.47 0.57,6.42 0.44,6.56 -0.12,0.14 -0.65,-1.85 -1.16,-4.43 z m -44.53,-15.18 c -6.22,-2.41 -5,-8.94 1.69,-8.94 3.5,0 4.92,0.76 6.04,3.21 0.71,1.55 0.72,2.15 0,3.98 -0.45,1.19 -1.15,2.21 -1.58,2.26 -2.77,0.38 -4.18,0.26 -6.19,-0.51 z m 5.78,-4.68 c 0.68,-0.92 0.59,-1.26 -0.65,-2.4 -1.66,-1.51 -4.91,-1.28 -6.44,0.46 -0.82,0.92 -0.73,1.02 0.88,1.02 0.98,0 2.3,0.44 2.93,0.98 1.5,1.28 2.31,1.26 3.28,-0.1 z m 67.22,-33.64 c -2.72,-3.49 -7.67,-5.98 -12.13,-6.08 -1.86,-0.1 -4.19,-0.31 -5.16,-0.59 -1.65,-0.47 -1.58,-0.52 0.89,-0.65 8.37,-0.42 11.49,0.39 14.9,3.9 1.77,1.82 4.46,6.1 3.83,6.1 -0.14,0 -1.19,-1.21 -2.33,-2.68 z"
       id="path1" />
  </g>
</svg>
